/* XPM */
static char *result[] = {
/* columns rows colors chars-per-pixel */
"32 32 8 1 ",
"  c #5D483C",
". c #353540",
"X c #735B42",
"o c #557D55",
"O c #608752",
"+ c #6A9150",
"@ c #5C699F",
"# c #6FA6A5",
/* pixels */
"+++++++++++++++OoXX..####@@@@@@@",
"+++++++++++++++OoXX..####@@@@@@@",
"+++++++++++++OOOoXX..####@@@@@@@",
"+++++++++++++OoooXX..####@@@@@@@",
"+++++++++++++Oo  XX..##@@@@@@@@@",
"+++++++++++++Oo  XX..##@@@@@@@@@",
"+++++++++++++Oo XXX..##@@@@@@@@@",
"+++++++++++++Oo XXX..##@@@@@@@@@",
"+++++++++++++Oo XXX..##@@@@@@@@@",
"+++++++++++++Oo XXX..##@@@@@@@@@",
"+++++++++++++Oo XXX..##@@@@@@@@@",
"+++++++++++++OoooXX..####@@@@@@@",
"+++++++++++++OoooXX..####@@@@@@@",
"+++++++++++++OOOoXX..####@@@@@@@",
"+++++++++++++++OoXX..####@@@@@@@",
"+++++++++++++++OoXX..####@@@@@@@",
"+++++++++++++++OoXX..####@@@@@@@",
"+++++++++++++++OoXX..####@@@@@@@",
"+++++++++++++OOOoXX..####@@@@@@@",
"+++++++++++++OoooXX..####@@@@@@@",
"+++++++++++++OoooXX..####@@@@@@@",
"+++++++++++++Oo  XX..##@@@@@@@@@",
"+++++++++++++Oo  XX..##@@@@@@@@@",
"+++++++++++++Oo XXX..##@@@@@@@@@",
"+++++++++++++Oo XXX..##@@@@@@@@@",
"+++++++++++++Oo XXX..##@@@@@@@@@",
"+++++++++++++Oo XXX..##@@@@@@@@@",
"+++++++++++++Oo XXX..##@@@@@@@@@",
"+++++++++++++OoooXX..####@@@@@@@",
"+++++++++++++OOOoXX..####@@@@@@@",
"+++++++++++++++OoXX..####@@@@@@@",
"+++++++++++++++OoXX..####@@@@@@@"
};
