/* XPM */
static char *result[] = {
/* columns rows colors chars-per-pixel */
"32 32 8 1 ",
"  c #5D483C",
". c #353540",
"X c #735B42",
"o c #557D55",
"O c #608752",
"+ c #6A9150",
"@ c #5C699F",
"# c #6FA6A5",
/* pixels */
"+++++++++++++OOOoXX..####@@@@@@@",
"+++++++++++++OoooXX..####@@@@@@@",
"+++++++++++++Oo  XX..####@@@@@@@",
"+++++++++++++Oo XXX..####@@@@@@@",
"+++++++++++++Oo XXX..##@@@@@@@@@",
"+++++++++++++OoooXX..##@@@@@@@@@",
"+++++++++++++OOOoXX..##@@@@@@@@@",
"+++++++++++++++OoXX..##@@@@@@@@@",
"+++++++++++++++OoXX..##@@@@@@@@@",
"OOOOOOOOOOO++++OoXX..##@@@@@@@@@",
"ooooooooooO++++OoXX..##@@@@@@@@@",
"o        oOOOOOOoXX..##@@@@@@@@@",
"o        ooooooooXX..##@@@@@@@@@",
"   XXXX          XX..####@@@@@@@",
"   XXXX          XX..####@@@@@@@",
"XXXXXXXXXXXXXXXXXXX..####@@@@@@@",
"XXXXXXXXXXXXXXXXXXX..####@@@@@@@",
"X........XXXXXXXXXX..####@@@@@@@",
"X........XXXXXXXXXX..####@@@@@@@",
"...####..............####@@@@@@@",
"...####..............####@@@@@@@",
"#########################@@@@@@@",
"#########################@@@@@@@",
"#########################@@@@@@@",
"#@@@@@@@@################@@@@@@@",
"@@@@@@@@@@@@@@@@@@@@@@@@@@@@@@@@",
"@@@@@@@@@@@@@@@@@@@@@@@@@@@@@@@@",
"@@@@@@@@@@@@@@@@@@@@@@@@@@@@@@@@",
"@@@@@@@@@@@@@@@@@@@@@@@@@@@@@@@@",
"@@@@@@@@@@@@@@@@@@@@@@@@@@@@@@@@",
"@@@@@@@@@@@@@@@@@@@@@@@@@@@@@@@@",
"@@@@@@@@@@@@@@@@@@@@@@@@@@@@@@@@"
};
