/* XPM */
static char *result[] = {
/* columns rows colors chars-per-pixel */
"32 32 116 2 ",
"   c gray3",
".  c #1F2919",
"X  c #3D2609",
"o  c #33333D",
"O  c #34343F",
"+  c #52390D",
"@  c #52390E",
"#  c #5C0025",
"$  c #5D0025",
"%  c #353540",
"&  c #505549",
"*  c #8A1F07",
"=  c #8A2007",
"-  c #8A2008",
";  c #8B2008",
":  c #88250B",
">  c #A52007",
",  c #C02007",
"<  c #C12007",
"1  c #C12008",
"2  c #9F4C2F",
"3  c #9F4C30",
"4  c #825035",
"5  c #825135",
"6  c #835136",
"7  c #A04C30",
"8  c #8C1445",
"9  c #8C1545",
"0  c #8C1645",
"q  c #8C1546",
"w  c #8D1546",
"e  c #B22A63",
"r  c #B22B63",
"t  c #B32B63",
"y  c #B32B64",
"u  c #B32C65",
"i  c #B32D65",
"p  c #B42D65",
"a  c #B42D66",
"s  c #608449",
"d  c #6C8E51",
"f  c #6D8F52",
"g  c #6A9050",
"h  c #6A9150",
"j  c #6C9051",
"k  c #6F9255",
"l  c #719257",
"z  c #7D9463",
"x  c #E29021",
"c  c #E39022",
"v  c #AC8161",
"b  c #AE8162",
"n  c #AF8163",
"m  c #AF8364",
"M  c #B08162",
"N  c #B28063",
"B  c #B28064",
"V  c #B38064",
"C  c #C2916F",
"Z  c #C5B07D",
"A  c #EDDF4F",
"S  c #F3E44F",
"D  c #F4E44F",
"F  c #F5E44F",
"G  c #F5E450",
"H  c #2F2AAD",
"J  c #2F2AAE",
"K  c #302AAE",
"L  c #D25C8F",
"P  c #D25D8F",
"I  c #D35D8F",
"U  c #D15E8E",
"Y  c #D35D90",
"T  c #D25F90",
"R  c #D35F90",
"E  c #D35F91",
"W  c #A2A2A2",
"Q  c #A9A1A1",
"!  c #A9A2A2",
"~  c #AAA2A2",
"^  c gray69",
"/  c #D5B585",
"(  c #DAB787",
")  c #DDB889",
"_  c #DEB88A",
"`  c #DFB98A",
"'  c #E0B98A",
"]  c #E5BA8C",
"[  c #E6BB8D",
"{  c #EABD8F",
"}  c #EDBD90",
"|  c #EEBD91",
" . c #EDBE90",
".. c #EEBE91",
"X. c #EFBE91",
"o. c #EFBE92",
"O. c #CDC595",
"+. c #EFC093",
"@. c #E0CFA1",
"#. c #EDD2A6",
"$. c #F5DAB0",
"%. c #F6DAB0",
"&. c #F6DAB1",
"*. c #8ABDE0",
"=. c #8ABDE1",
"-. c #8BBDE1",
";. c #DBA1C0",
":. c #E8A3CE",
">. c #E8A4CE",
",. c #E9A4CE",
"<. c #E9A4CF",
"1. c #C0C0C0",
"2. c #E0DADA",
"3. c #E1DADA",
"4. c #F7F9F6",
"5. c white",
/* pixels */
"h h h h h h h h h h h h h h % h h h h % % % % % % h h h h h h h ",
"h h h h h h h h h h h h % % Q % h % % D F F F D c % h h h h h h ",
"h h h h h h h h h h h % ! % ! % % D F Y I I I I 2.c % h h h h h ",
"h h h h h h h h h h % ! 3.3.5.O A I *.5.5.5.5.5.=.a x % h h h h ",
"h h h h h h h h % % 2.2.4.% % % G I 5.D F 5.G D 5.a c % h h h h ",
"h h h h h h h % ! 5.5.~ % D c % F Y 5.F # 5.# G 5.i % h % h h h ",
"h h h h h h % ~ 3.5.! % D I c % % F *.5.5.! 5.5.*.x % h c % h h ",
"h h h h h % ! 3.2.! % S I Y P c % F =.5.2.5.3.5.=.c % X c a % h ",
"h h h h h % ! ! 5.& % i Y P Y P c % =.-.5.5.5.=.=.c % c P i % h ",
"h h h h % ! 5.3.! % 8 i I I Y I I c *.I Y P Y I =.*.c P Y p % h ",
"h h h h % ! 5.2.! % 9 p i Y Y I =.=.I I I L Y I P =.-.Y p q % h ",
"h % h % ~ 3.! 5.! % q p i a p q w a % % % % % % a Y I u q % h h ",
"h % % % ! 3.% % % o % 0 9 q w q 9 % J J J J J K % q 9 q % % h h ",
"h % I >.% % % I y 9 I % 9 9 q % % % ..X...$.$.N % % % % U I % % ",
"% % % % % % >.>.P r q L % % % ;.% N K H N + $.$.J % P Y I r q y ",
"k z % I >.,.,.>.<.>.Y t P I 9 % N I 5.5.H N $.J 5.% y P P P I % ",
"h h % y R R L Y y t y y r r :.% N X.5 % 5.% % N % % % r I I % h ",
"j h g % y R >.>.>.>.Y L >.y % B X.6 V B 6 $.$.$.% ....% y Y % h ",
"h h % % % q <.Y P P I <.>.t % N 6 N X.$.6 ..$.$.$.% N X.% P % h ",
"% % t R R >.I r y <.<.<.t % b ..5 * ..X.V 6   o.o.X.% M % % Y % ",
"y R R <.9 9 9 Y >.>.P r >.% N X.= 5.* > < o.X.      ; % Y I % h ",
"% % y E 9 R <.>.>.I <.<.% V o...@ > 5.5.5.5., 1 5.5.1.: . Y q h ",
"j % % % % y T <.>.>.<.Y % ..X.X.| N         W ^       N % I % h ",
"h d % % R % q y r ,.>.% B $.$.$.&.N     $ 7 2 7 $     B  .% % h ",
"% % R >.<.<.R q P >.I % B +.$.%.$.$.< 1.1.7 2 3 1.1.= ..o.C % h ",
"r E :.,.E R ,.I r <.% X...#.m ..$.$.$.1 1.1.1.1.5.- X...N _ % h ",
"% % y t 9 % P <.>.I % X.......v o.$.%.$.< 5.5.5.< $.$.%.N Z % h ",
"l % % % % E <.>.Y P % X.........] X.$.$.$., 1 < $.$.$.$.O...% h ",
"h h f % % % Y Y Y y % % o...o.....( B X.$.%.$.$.$.X.N @...} % h ",
"h g % t P Y % t r % h % o.o...........n N 4 5 5 N N [ ......% h ",
"h h % % e y % % y h h h % % o.X.o.......................$.% h h ",
"h h h s % % h h % h h h h h % % % % X...o.{ [ ' ) / ` % % h h h "
};
