/* XPM */
static char *result[] = {
/* columns rows colors chars-per-pixel */
"43 32 75 1 ",
"  c black",
". c #070707",
"X c gray3",
"o c #101010",
"O c #2B1B06",
"+ c #3D2609",
"@ c #52380D",
"# c #52390D",
"$ c #5C0025",
"% c #5D0026",
"& c #8A2007",
"* c #8A2008",
"= c #8B2008",
"- c #A52007",
"; c #C02007",
": c #C12007",
"> c #C12008",
", c #9F4C30",
"< c #825135",
"1 c #835136",
"2 c #A04C30",
"3 c #8C1545",
"4 c #8C1546",
"5 c #8D1546",
"6 c #B22A63",
"7 c #B22B63",
"8 c #B32B63",
"9 c #B32B64",
"0 c #B32C65",
"q c #B32D65",
"w c #B42D65",
"e c #B42D66",
"r c #B27F63",
"t c #6A9150",
"y c #E29021",
"u c #E29022",
"i c #E39022",
"p c #B28063",
"a c #B28064",
"s c #B38064",
"d c #F4E44F",
"f c #F5E44F",
"g c #F5E450",
"h c #2F2AAD",
"j c #2F2AAE",
"k c #302AAE",
"l c #D25C8F",
"z c #D25D8F",
"x c #D35D8F",
"c c #D35D90",
"v c #D25E90",
"b c #D25F90",
"n c #D35F90",
"m c #D35F91",
"M c #A9A1A1",
"N c #A9A2A2",
"B c #AAA2A2",
"V c #EEBD91",
"C c #EEBE91",
"Z c #EFBE91",
"A c #EFBE92",
"S c #F5DAB0",
"D c #F6DAB0",
"F c #F6DAB1",
"G c #8ABDE0",
"H c #8ABDE1",
"J c #8BBDE1",
"K c #E8A3CE",
"L c #E8A4CE",
"P c #E9A4CE",
"I c #E9A4CF",
"U c #C0C0C0",
"Y c #E0DADA",
"T c #E1DADA",
"R c white",
/* pixels */
"ttttttttttttttttttttXttttXXXXXXtttttttttttt",
"ttttttttttttttttttXXBXtXXdfffdiXttttttttttt",
"tttttttttttttttttXBXNXXdfcxxxxYiXtttttttttt",
"ttttttttttttttttXNTTRXfxGRRRRRHeyXttttttttt",
"tttttttttttttXXXTYR  XgxRdfRgdReiXttttttttt",
"ttttttttttXX.BNRRN guXfcRf$R$gRqXt tttttttt",
"tttttttttXNBNTTRN fzy+ofGRRNRRGyX i ttttttt",
"ttttttttttXNNNTN dccziOfHRYRTRHiX+yq tttttt",
"ttttttttttXYRTRX qcxxcy HJRRRHHi yzw tttttt",
"tttttttttXNTBRN 4exxzcciHzxxxcJHixzw tttttt",
"tttttttttXNRMRT 4wwcxzJHxxxzxxcHHxe4 tXtttt",
"tttttttXtt  RYR 4qeq043q      exxw5 XXXtttt",
"tttttttXXXttXXXXX434444XjjjjjhX454 z89Xtttt",
"tttttttXxLXXXx75xX445XXXZZZDSaXXX czzXttttt",
"ttXXXXXXzxIILIx95zXXXcXakjp@SSkXccx848XXttt",
"ttXzLIILl3zcLLLIz9cz3XpcRRjpSjRX9zccxc79XXX",
"ttX7mnLI3L4xxx889788IXpA1XRXXsXXX9zxzzz89Xt",
"tttX7nmn4nIILIIIzxP7XsC<pp1SSSXACX8z4x73Xtt",
"ttXXX343449IPzxzcIL8Xp<rCS<ASSSXpCXx4lzz8XX",
"XX6nnILLPxxxx79ILL9XpA1*ZCr<XCVCXpX4czxcl7X",
"8nnI345nn8354zLPx9KXpC*R=-:AZXXX&Xzccz7c7Xt",
"XX9n3nILIL5zIILzLLXpCC#-RRRR::RRU*Xz3zc4x8X",
"tXXXX8mLLxz5vIIPIxXCAZApXXXXRRXXXpXc4zccX89",
"ttXXnX997nnn588LLXpDSSSpXXXXXXXXXpZXxc4x6XX",
"XXnPILnmIIInn3xPxXpZSSSpXX$222%XXpZsXcx4X8X",
"9bIInm743mLIIx7IXCZSSSSS:UU2,2UU*AAZX9zxxzX",
"XX974XXLPIILzILzXZAAaZFSS>UUUUR&CCpCX7X894X",
"tXXXXmIPLInmPPzcXZCZCaCSSS>RRR:SSSsAX9XX96X",
"tttXXXxxmbIPzxc9XXAZCZCCFDS>;;FSSSSCXXttXXX",
"ttX9zzXX45xzX88XttAZCAZCaCSSSSSApSSZtXttttt",
"ttXX8798877XXX9tttttCAZZZpp111spASSttXttttt",
"ttttXXXX9XXtttXtttttttttCCACCZACAtttttttttt"
};
