/* XPM */
static char *mom_h2_png[] = {
/* columns rows colors chars-per-pixel */
"32 32 75 1 ",
"  c #080808",
". c #1F2919",
"X c #3D2609",
"o c #34343F",
"O c #52390D",
"+ c #5C0025",
"@ c #5D0025",
"# c #353540",
"$ c #4F5549",
"% c #8A1F07",
"& c #8A2007",
"* c #8B2008",
"= c #88250A",
"- c #A52007",
"; c #C12007",
": c #C12008",
"> c #9F4C2F",
", c #825135",
"< c #835136",
"1 c #8C1545",
"2 c #8C1546",
"3 c #8D1546",
"4 c #841944",
"5 c #B22B63",
"6 c #B32B63",
"7 c #B32B64",
"8 c #B32C65",
"9 c #B32D65",
"0 c #B42D65",
"q c #B27F63",
"w c #6E844F",
"e c #69904F",
"r c #6B8D50",
"t c #718852",
"y c #6B9050",
"u c #6A9150",
"i c #76935C",
"p c #78935E",
"a c #E39022",
"s c #AE8162",
"d c #B08162",
"f c #B28063",
"g c #B38064",
"h c #EDDF4F",
"j c #F3E44F",
"k c #F4E44F",
"l c #F5E44F",
"z c #F5E450",
"x c #2F2AAE",
"c c #302AAE",
"v c #D25D8F",
"b c #D35D8F",
"n c #D35D90",
"m c #D25F90",
"M c #D35F90",
"N c #D35F91",
"B c #A9A2A2",
"V c #AAA2A2",
"C c #ABA7A3",
"Z c #EEBE91",
"A c #EFBE91",
"S c #EFBE92",
"D c #F5DAB0",
"F c #F6DAB0",
"G c #8ABDE0",
"H c #8BBDE1",
"J c #DCA2C1",
"K c #E8A3CE",
"L c #E8A4CE",
"P c #E9A4CE",
"I c #E9A4CF",
"U c #C0C0C0",
"Y c #E0DADA",
"T c #E1DADA",
"R c white",
/* pixels */
"uuuuuuuuuuuuu##uuuu######uuuuuuu",
"uuuuuuuuu####B##u##jlljla#uuuuuu",
"uuuuuuuu#VRYBYYo#jjnvvvvTa#uuuuu",
"uuuuuuu#VYRRYRYohvGRRRRRG0a#uuuu",
"uuuuuu#VTTVVC###zvRllRzjR0a#uuuu",
"uuuuuu#VVRVR#ka#znRl+R+zR0#u#uuu",
"uuuuu#VRTVTokba#olGRRVRRGa#ua#uu",
"uuuu##VRT##kvnba#lGRTRTRGa#Xa0#u",
"uuuu#VTVR$#7bnnba#GHRRRGGa#an8#u",
"uuuuu#TVR#28NbnbNaGbnvnvGGann8#u",
"uuuu##RRTo200NbbHHvbvvnvnGGn82#u",
"uu##u##o#o20000220######7nn82#uu",
"u#vK###N04o222222#ccxxxco222#v#u",
"##L#LLKIv62#112#ooAAZDDfoooon82#",
"iL#vLLLLKLv7oo#J#qccfODDc#8vnv#u",
"uu#7NNNb677706L#fvRRxfDcR#28v#uu",
"yyw#6bLLLLvvP0PofA<oR##f###25vou",
"yr##o2LbMMvLP0#gA<gg<DDD#AZ#2v2#",
"##0bMLb69KLL9Lof<fAD<ADDD#gAo2vu",
"0NML222bKKM9LosA<&AAg< AAA#f#n#u",
"o#0N2NLLLbLLMogS&R%--AA   *#8v#u",
"e#ooo0NLLLKbosSSO-RRRR;;RRU=.v2#",
"yt#PNo260LLboZZZAq    RR   fo2ou",
"##MLLKN2bLb#fFFFDq         gZ#uu",
"6MLLMMLN6LbogSFFDf  +>>>+  gAg#u",
"##002oMLLboSSDFFDF;UU>><UU&AAA#u",
"p###oNLKMboSSAfADDF;UUJUR*AAgA#u",
"yyy###bbM0oSSAAfADFD;RRR;DDDgA#u",
"ue#6bb#00oe#SSSSAADDD-:;DDDDDZ#e",
"uu##60#o0ue#SSSSAAfADDFFDZgDDZ#u",
"euue##ry#uuuooSSZZAfg,<<gsZDD#uu",
"uuuuuuyyuuuuuu####ZZAZAAAAA##uuu"
};
