/* XPM */
static char *result[] = {
/* columns rows colors chars-per-pixel */
"32 32 97 2 ",
"   c gray3",
".  c #1F2919",
"X  c #3D2609",
"o  c #33333D",
"O  c #34343F",
"+  c #52390D",
"@  c #52390E",
"#  c #5C0025",
"$  c #5D0025",
"%  c #353540",
"&  c #505549",
"*  c #8A1F07",
"=  c #8A2007",
"-  c #8A2008",
";  c #8B2008",
":  c #88250B",
">  c #A52007",
",  c #C02007",
"<  c #C12007",
"1  c #C12008",
"2  c #9F4C2F",
"3  c #9F4C30",
"4  c #825035",
"5  c #825135",
"6  c #835136",
"7  c #A04C30",
"8  c #8C1445",
"9  c #8C1545",
"0  c #8C1645",
"q  c #8C1546",
"w  c #8D1546",
"e  c #B22A63",
"r  c #B22B63",
"t  c #B32B63",
"y  c #B32B64",
"u  c #B32C65",
"i  c #B32D65",
"p  c #B42D65",
"a  c #B42D66",
"s  c #B27F63",
"d  c #608449",
"f  c #6C8E51",
"g  c #6D8F52",
"h  c #6A9050",
"j  c #6A9150",
"k  c #6C9051",
"l  c #6F9255",
"z  c #719257",
"x  c #7D9463",
"c  c #E29021",
"v  c #E39022",
"b  c #AE8162",
"n  c #B08162",
"m  c #B18063",
"M  c #B28063",
"N  c #B28064",
"B  c #B38064",
"V  c #EDDF4F",
"C  c #F3E44F",
"Z  c #F4E44F",
"A  c #F5E44F",
"S  c #F5E450",
"D  c #2F2AAD",
"F  c #2F2AAE",
"G  c #302AAE",
"H  c #D25C8F",
"J  c #D25D8F",
"K  c #D35D8F",
"L  c #D15E8E",
"P  c #D35D90",
"I  c #D25F90",
"U  c #D35F90",
"Y  c #D35F91",
"T  c #A9A1A1",
"R  c #A9A2A2",
"E  c #AAA2A2",
"W  c #EEBD91",
"Q  c #EDBE90",
"!  c #EEBE91",
"~  c #EFBE91",
"^  c #EFBE92",
"/  c #F5DAB0",
"(  c #F6DAB0",
")  c #F6DAB1",
"_  c #8ABDE0",
"`  c #8ABDE1",
"'  c #8BBDE1",
"]  c #DBA1C0",
"[  c #E8A3CE",
"{  c #E8A4CE",
"}  c #E9A4CE",
"|  c #E9A4CF",
" . c #C0C0C0",
".. c #E0DADA",
"X. c #E1DADA",
"o. c #F7F9F6",
"O. c white",
/* pixels */
"j j j j j j j j j j j j j j % j j j j % % % % % % j j j j j j j ",
"j j j j j j j j j j j j % % T % j % % Z A A A Z v % j j j j j j ",
"j j j j j j j j j j j % R % R % % Z A P K K K K ..v % j j j j j ",
"j j j j j j j j j j % R X.X.O.O V K _ O.O.O.O.O.` a c % j j j j ",
"j j j j j j j j % % ....o.% % % S K O.Z A O.S Z O.a v % j j j j ",
"j j j j j j j % R O.O.E % Z v % A P O.A # O.# S O.i % j % j j j ",
"j j j j j j % E X.O.R % Z K v % % A _ O.O.R O.O._ c % j v % j j ",
"j j j j j % R X...R % C K P J v % A ` O...O.X.O.` v % X v a % j ",
"j j j j j % R R O.& % i P J P J v % ` ' O.O.O.` ` v % v J i % j ",
"j j j j % R O.X.R % 8 i K K P K K v _ K P J P K ` _ v J P p % j ",
"j j j j % R O...R % 9 p i P P K ` ` K K K H P K J ` ' P p q % j ",
"j % j % E X.R O.R % q p i a p q w a % % % % % % a P K u q % j j ",
"j % % % R X.% % % o % 0 9 q w q 9 % F F F F F G % q 9 q % J y j ",
"j % K { % % % K y 9 K % 9 9 q % % % ! ~ ! / / M % % % % L K K j ",
"% % % % % % { { J r q H % % % ] % M G D M + / / F % J P K r q y ",
"l x % K { } } { | { P t J K 9 % M K O.O.D M / F O.% y J J J K j ",
"j j % y U U H P y t y y r r [ % M ~ 5 % O.% % M % % % r K K j j ",
"k j h % y U { { { { P H { y % N ~ 6 B N 6 / / / % ! ! % y P j j ",
"j j % % % q | P J J K | { t % M 6 M ~ / 6 ! / / / % M ~ % J q j ",
"% % t U U { K r y | | | t % b ! 5 * ! ~ B 6   ^ ^ ~ % n % 9 P j ",
"y U U | 9 9 9 P { { J r { % M ~ = O.* > < ^ ~       ; % P K H j ",
"% % y Y 9 U | { { K | | % B ^ ! @ > O.O.O.O., 1 O.O. .: . P q K ",
"k % % % % y I | { { | P % ! ~ ~ W M         O.O.      M % K w j ",
"j f % % U % q y r } { % N / / / ) s                   N Q % P j ",
"% % U { | | U q J { K % N ~ / / / M     $ 7 2 7 $     N ^ m % P ",
"r Y [ } Y U } K r | % ~ ! / / ( / / <  . .7 2 3  . .= ! ^ ~ % r ",
"% % y t 9 % J | { K % ~ ! ^ M ! / / / 1  . . . .O.- ~ ! M ^ % t ",
"z % % % % Y | { P J % ~ ! ~ ! M ^ / ( / < O.O.O.< / / ( M ^ % y ",
"j j g % % % P P P y % % ^ ! ^ ~ ~ ~ / / / , 1 < / / / / / ~ % j ",
"j h % t J P % t r % j % ^ ^ ! ^ ^ ! N ~ / ( / / / ~ M / / ! % j ",
"j j % % e y % % y j j j % % ^ ~ ^ ~ ! B M 4 5 5 M M ! / / % j j ",
"j j j d % % j j % j j j j j % % % % ~ ! ^ ! ~ ! ^ ~ ^ % % j j j "
};
