/* XPM */
static char *result[] = {
/* columns rows colors chars-per-pixel */
"32 32 121 2 ",
"   c gray3",
".  c #1F2919",
"X  c #3D2609",
"o  c #33333D",
"O  c #34343F",
"+  c #52390D",
"@  c #52390E",
"#  c #5C0025",
"$  c #5D0025",
"%  c #53713F",
"&  c #353540",
"*  c #505549",
"=  c #8A1F07",
"-  c #8A2007",
";  c #8A2008",
":  c #8B2008",
">  c #88250B",
",  c #A52007",
"<  c #C02007",
"1  c #C12007",
"2  c #C12008",
"3  c #9F4C2F",
"4  c #9F4C30",
"5  c #825035",
"6  c #825135",
"7  c #835136",
"8  c #A04C30",
"9  c #8C1445",
"0  c #8C1545",
"q  c #8C1645",
"w  c #8C1546",
"e  c #8D1546",
"r  c #B22A63",
"t  c #B22B63",
"y  c #B32B63",
"u  c #B32B64",
"i  c #B32C65",
"p  c #B32D65",
"a  c #B42D65",
"s  c #B42D66",
"d  c #5F8248",
"f  c #688E4E",
"g  c #69904F",
"h  c #6B8C50",
"j  c #6B8F50",
"k  c #6C8E51",
"l  c #788A59",
"z  c #6A9050",
"x  c #6A9150",
"c  c #6B9151",
"v  c #719257",
"b  c #E29021",
"n  c #E39022",
"m  c #AC8161",
"M  c #AE8162",
"N  c #AF8163",
"B  c #AF8364",
"V  c #B08162",
"C  c #B28063",
"Z  c #B28064",
"A  c #B38064",
"S  c #C2916F",
"D  c #C5B07D",
"F  c #EDDF4F",
"G  c #F3E44F",
"H  c #F4E44F",
"J  c #F5E44F",
"K  c #F5E450",
"L  c #2F2AAD",
"P  c #2F2AAE",
"I  c #302AAE",
"U  c #CF5F8D",
"Y  c #D25C8F",
"T  c #D25D8F",
"R  c #D35D8F",
"E  c #D25E8F",
"W  c #D35D90",
"Q  c #D25E90",
"!  c #D25F90",
"~  c #D35F90",
"^  c #D35F91",
"/  c #A2A2A2",
"(  c #A9A1A1",
")  c #A9A2A2",
"_  c #AAA2A2",
"`  c gray69",
"'  c #D5B585",
"]  c #DAB787",
"[  c #DDB889",
"{  c #DEB88A",
"}  c #DFB98A",
"|  c #E0B98A",
" . c #E5BA8C",
".. c #E6BB8D",
"X. c #EABD8F",
"o. c #EDBD90",
"O. c #EEBD91",
"+. c #EDBE90",
"@. c #EEBE91",
"#. c #EFBE91",
"$. c #EFBE92",
"%. c #CDC595",
"&. c #EFC093",
"*. c #E0CFA1",
"=. c #EDD2A6",
"-. c #F5DAB0",
";. c #F6DAB0",
":. c #F6DAB1",
">. c #8ABDE0",
",. c #8ABDE1",
"<. c #8BBDE1",
"1. c #DBA1C0",
"2. c #E8A3CE",
"3. c #E8A4CE",
"4. c #E9A4CE",
"5. c #E9A4CF",
"6. c #C0C0C0",
"7. c #E0DADA",
"8. c #E1DADA",
"9. c #F7F9F6",
"0. c white",
/* pixels */
"x x x x x x x x x x x x x x & x x x x & & & & & & x x x x x x x ",
"x x x x x x x x x x x x & & _ & x & & H J J J H n & x x x x x x ",
"x x x x x x x x x x x & _ & ) & & H J W R R R R 7.n & x x x x x ",
"x x x x x x x x x x & ) 8.8.0.O F R >.0.0.0.0.0.,.s b & x x x x ",
"x x x x x x x & & & 8.7.9.& & & K R 0.H J 0.K H 0.s n & x x x x ",
"x x x x & & & _ ) 0.0.) & H n & J W 0.J # 0.# K 0.p & x & x x x ",
"x x x & ) _ ) 8.8.0.) & H R n & & J >.0.0.) 0.0.>.b & x n & x x ",
"x x x x & ) ) ) 8.) & G R W T n & J ,.0.7.0.8.0.,.n & X n s & x ",
"x x x x & 7.0.8.0.* & p W T W T n & ,.<.0.0.0.,.,.n & n T p & x ",
"x x x & ) 8._ 0.) & 9 p R R W R R n >.R W T W R ,.>.n T W a & x ",
"x x x & ) 0.( 0.8.& 0 a p W W R ,.,.R R R Y W R T ,.<.W a w & x ",
"x & x x & & 0.7.0.& w a p s a w e s & & & & & & s W R i w & x x ",
"x % & & x x & & & o & q 0 w e w 0 & P P P P P I & w 0 w & z x x ",
"x & U 3.& & & R t e R & 0 0 w & & & @.#.@.-.-.C & & & & E & x x ",
"f & 3.3.3.3.3.5.R u e T & & & 1.& C I L C + -.-.P & W W R y & x ",
"x v & T 3.3.3.3.3.5.T u W T 0 & C R 0.0.L C -.P 0.& u T W W & x ",
"x x & t ^ ~ R R y y u t y y 5.& C #.6 & 0.& & C & & & u T R T & ",
"x x h & t ~ 3.5.5.5.T R 4.t & Z #.7 A Z 7 -.-.-.& @.@.& y T & x ",
"x j & & & 0 4.T R T W 5.3.y & C 7 C #.-.7 @.-.-.-.& C #.& R & x ",
"& & r ~ ~ 5.R t u 5.3.3.u & M @.6 = @.#.A 7   $.$.#.& V & w W & ",
"y ~ ~ 5.0 w w T 3.4.R u 2.& C #.- 0.= , 1 $.#.      : & T W & x ",
"& & u ~ 0 ~ 5.5.3.T 3.3.& A $.@.@ , 0.0.0.0.< 2 0.0.6.> . T 0 & ",
"x & & & & y Q 5.5.4.5.R & @.#.#.O.C         / `       C & W & x ",
"x k & & ~ & e y y 3.3.& Z -.-.-.:.C     $ 8 3 8 $     Z +.& x x ",
"& & ~ 4.5.3.~ 0 R 4.R & Z &.-.;.-.-.1 6.6.8 3 4 6.6.- @.$.S & x ",
"u ! 5.5.~ ^ 5.R t 5.& #.@.=.B @.-.-.-.2 6.6.6.6.0.; #.@.C { & x ",
"& & u t w & T 5.3.T & #.@.@.@.m $.-.;.-.1 0.0.0.1 -.-.;.C D & x ",
"c & & & & ^ 4.4.T W & #.@.@.@.@. .#.-.-.-.< 2 1 -.-.-.-.%.@.& x ",
"x x l & & & T R W u & & $.@.$.@.@.] Z #.-.;.-.-.-.#.C *.@.o.& x ",
"x x & u T T & y y & x & $.$.@.@.@.@.@.N C 5 6 6 C C ..@.@.@.& x ",
"x x & & y t & & u x x x & & $.#.$.@.@.@.@.@.@.@.@.@.@.@.-.& x x ",
"x g x d & & x x & x x x x x & & & & #.@.$.X...| [ ' } & & x x x "
};
