/* XPM */
static char *_7bbe1ecd8cc4bd8b5331aa52d74aea6utAAXAh3C9iNdGyf[] = {
/* columns rows colors chars-per-pixel */
"32 32 7 1 ",
"  c #353540",
". c #3A4144",
"X c #557D55",
"o c #8B9150",
"O c #918D8D",
"+ c #BFB8B4",
"@ c #EDE4DA",
/* pixels */
"oooooooooooooooooooooooooooooooo",
"oooooooooooooooooooooooooooooooo",
"oooooooooooooooooooooooooooooooo",
"oooooooooooooooooooooooooooooooo",
"oooooooooooooooooooooooooooooooo",
"oooooooooooooooooooooooooooooooo",
"oooooooooooooooooooooooooooooooo",
"oooooooooooooooooooooooooooooooo",
"oooooooooooooooooooooooooooooooo",
"ooooooooooo        ooooooooooooo",
"oooooooooo  ++++@@  oooooooooooo",
"oooooooooo ++++++@@ oooooooooooo",
"oooooooooo ++++++++ oooooooooooo",
"oooooooooX ++++++++ Xooooooooooo",
"oooooooooX ++++++++ Xooooooooooo",
"oooooooooX O++++++O  ooooooooooo",
"oooooooooX OOOOOOOO@  oooooooooo",
"oooooooooX OOOOOOO+@@ oooooooooo",
"oooooooooX OOOO.+++++ oooooooooo",
"oooooooooXXXOOO.O+++O Xooooooooo",
"ooooooooooXXXXX.OOOOO Xooooooooo",
"oooooooooooooXXXOOOOXXXooooooooo",
"ooooooooooooooXXXXXXXXoooooooooo",
"oooooooooooooooooooooooooooooooo",
"oooooooooooooooooooooooooooooooo",
"oooooooooooooooooooooooooooooooo",
"oooooooooooooooooooooooooooooooo",
"oooooooooooooooooooooooooooooooo",
"oooooooooooooooooooooooooooooooo",
"oooooooooooooooooooooooooooooooo",
"oooooooooooooooooooooooooooooooo",
"oooooooooooooooooooooooooooooooo"
};
