/* XPM */
static char *result[] = {
/* columns rows colors chars-per-pixel */
"32 32 7 1 ",
"  c #211640",
". c #557D55",
"X c #688E50",
"o c #6A9150",
"O c #E2C9FF",
"+ c #F6F2FA",
"@ c white",
/* pixels */
"ooooooooo   oooooooo   ooooooooo",
"oooooooo @@@ oooooo @@@ oooooooo",
"oooooooo @@O oooooo @@O oooooooo",
"oooooooo @@O oooooo @@O oooooooo",
"oooooooo @@O oooooo @@O oooooooo",
"oooooooo @@O oooooo @@O oooooooo",
"oooooooo @@O oooooo @@O oooooooo",
"oooooooo @@O           ooooooooo",
"ooooooo @O@@@@@@@@@@@@  oooooooo",
"ooooooo @O@@@@@@@@@@@@@ oooooooo",
"ooooooo @O@@@@@@@@@@@@@ oooooooo",
"oooooo @OO@@@@@@@@@@@@@@ ooooooo",
"oooooo @OO@@@@@@@@@@@@@@ ooooooo",
"oooooo @OO@@@@@@@@@@@@@@ ooooooo",
"oooooo @OO@@@@@@@@@@@@@@ ooooooo",
"oooooo @OO@@@@@@@@@@@@@@ ooooooo",
"oooooo @OO@@@@@@@@@@@@@@ ooooooo",
"oooooo @OO@@@@@@@@@@@@@@ ooooooo",
"oooooo @OO@@@@@@@@@@@@@@ ooooooo",
"ooooo @OOOO@@@@@@@@@@@@@@ oooooo",
"ooooo @@O+@@@@@@@@@@ @@@@ oooooo",
"oooo @@@OO+@@@@@@@@@+O@@@@ ooooo",
"oooo @@OO +@@@@@@@@@@ O@@@ ooooo",
"ooo @@@O O+@@@@@   @@+ O@@@ oooo",
"ooo @@OO O+@@@@ @@@ @+ O@@@ oooo",
"ooo OOO OOO+@@@ @@O @@+ OOO oooo",
"oooo    @OOO++++   OOOOO   ooooo",
"oooooooo @OOOOOOOOOOOOO Xooooooo",
"ooooooooo              ooooooooo",
"ooooooooo OOOOooooOOOO ooooooooo",
"oooooo....    ....    ....oooooo",
"oooooooooooooooooooooooooooooooo"
};
