/* XPM */
static char *result[] = {
/* columns rows colors chars-per-pixel */
"32 32 9 1 ",
"  c #211640",
". c #557D55",
"X c #CF3C71",
"o c #6A9150",
"O c #E18289",
"+ c #F5B784",
"@ c #FF82CE",
"# c #E2C9FF",
"$ c white",
/* pixels */
"ooooooooo   oooooo   ooooooooooo",
"oooooooo $$$ oooo $$$ oooooooooo",
"oooooooo #@$ oooo #@$ oooooooooo",
"oooooooo #@$ oooo #@$ oooooooooo",
"ooooooooo #@$ oooo #@$ ooooooooo",
"ooooooooo #@$ oooo #@$ ooooooooo",
"ooooooooo #@$ oooo #@$ ooooooooo",
"oooooooo           #@$ ooooooooo",
"oooooooo $$$$$$$#####$ ooooooooo",
"ooooooo $$$$$$$$$#####$ oooooooo",
"ooooooo $ $$$$$$$ ####$ oooooooo",
"oooooo $$ $   $$$ #####$ ooooooo",
"oooooo $$$$$ $$$$######$ ooooooo",
"oooooo $$   O     #####$ ooooooo",
"oooooo $ OOO+OOOOO ####$ ooooooo",
"oooooo $  ++++++ O ####$ ooooooo",
"oooooo $  ++++++ O ####$ ooooooo",
"oooooo $  +   ++ O ####$ ooooooo",
"oooooo $ X++++++XX ####$ ooooooo",
"oooooo $$         #####$ ooooooo",
"oooooo $$$$$$$$$$### ##$ ooooooo",
"oooooo $$$ $ $   $# ###$ ooooooo",
"oooooo $$$ $ $$$ $# ##$  ooooooo",
"oooooo $$$   $   $# ##$  ooooooo",
"oooooo $$$$$ $ $$$##   $ ooooooo",
"oooooo $$$$$ $   ######$ ooooooo",
"oooooo  $##############$ ooooooo",
"oooooo $$         ####  oooooooo",
"oooooo $$## ooooo ####$ oooooooo",
"ooooooo $$# oooooo ###$ oooooooo",
"oooooo..   ........    ..ooooooo",
"oooooooooooooooooooooooooooooooo"
};
