/* XPM */
static char *result[] = {
/* columns rows colors chars-per-pixel */
"32 32 9 1 ",
"  c #211640",
". c #557D55",
"X c #CF3C71",
"o c #6A9150",
"O c #E18289",
"+ c #F5B784",
"@ c #FF82CE",
"# c #E2C9FF",
"$ c white",
/* pixels */
"ooooooooo   ooooooo   oooooooooo",
"oooooooo $$$ ooooo $$$ ooooooooo",
"oooooooo #@$ ooooo #@$ ooooooooo",
"oooooooo #@$ ooooo #@$ ooooooooo",
"oooooooo #@$ ooooo #@$ ooooooooo",
"ooooooooo #@$ ooooo #@$ oooooooo",
"ooooooooo #@$ ooooo #@$ oooooooo",
"ooooooooo #@$ ooooo #@$ oooooooo",
"ooooooooo           #@$ oooooooo",
"oooooooo $$$$$$$$#####$ oooooooo",
"ooooooo $$ $$$$$$$ ###$ oooooooo",
"ooooooo $$ $   $$$ ###$ oooooooo",
"oooooo $$$$$$ $$$$#####$ ooooooo",
"oooooo $$    O     ####$ ooooooo",
"oooooo $ OOOOOOOOOO ###$ ooooooo",
"oooooo $ + ++++++ O ###$ ooooooo",
"oooooo $ + ++++++ O ###$ ooooooo",
"oooooo $ + +   ++ O ###$ ooooooo",
"oooooo $ XX++++++XX ###$ ooooooo",
"oooooo $$          #####$ oooooo",
"ooooo  $$$$$$$$$$$### ##$ oooooo",
"oooo $ $$$ $ $   $$## ###$ ooooo",
"oooo $ $$$ $ $$$ $$### ##$ ooooo",
"oooo $ $$$   $   $$### ##$ ooooo",
"ooooo  $$$$$ $ $$$$###$   oooooo",
"oooooo $$$$$ $   $####$ oooooooo",
"ooooooo $#############$ oooooooo",
"ooooooo $$      #####$ ooooooooo",
"oooooooo $$## oo ###$ oooooooooo",
"ooooooooo $$# ooo ##$ oooooooooo",
"oooooo....   .....   ....ooooooo",
"oooooooooooooooooooooooooooooooo"
};
