/* XPM */
static char *pink3_png[] = {
/* columns rows colors chars-per-pixel */
"32 32 7 1 ",
"  c #211640",
". c #557D55",
"X c #688E50",
"o c #6A9150",
"O c #FF82CE",
"+ c #FEC9ED",
"@ c #F8F1F6",
/* pixels */
"oooooooooooooooooooooooooooooooo",
"oooooooooooooooooooooooooooooooo",
"oooooooooooooooooooooooooooooooo",
"oooooooooooooooooooooooooooooooo",
"oooooooooooooooooooooooooooooooo",
"oooooooooooooooooooooooooooooooo",
"oooooooooooooooooooooooooooooooo",
"ooooooo    ooooooooooo   ooooooo",
"oooooo +OOO           OOO oooooo",
"oooooo +OOOOOOO++++++@ OO oooooo",
"ooooooo +O OOO++++++++@ O oooooo",
"oooooooo  +OOO++++++++++ ooooooo",
"oooooooo +OOOO++++++++++ ooooooo",
"ooooooo ++OOOO+++++++++++ oooooo",
"ooooooo +OOOO++++++++++++ oooooo",
"ooooooo +OOO+++++++++++++ oooooo",
"ooooooo +OOO+++++++++++++ oooooo",
"ooooooo +OOO+++++++++++++ oooooo",
"ooooooo +OOO+++++++++++++ oooooo",
"ooooooo +OOO+++++++++++++ oooooo",
"oooooo +OOOOO++++++++++++  ooooo",
"oooooo +OO OO++++++ +++++  ooooo",
"ooooo +OOO OO++++++O ++++ + oooo",
"ooooo +OO OOO+++++ O ++++ + oooo",
"ooooo +OO OOO++++++ +++++ + oooo",
"oooooo   OOOO++++++++++++  ooooo",
"ooooooo +OOOOO+++++++++++ oooooo",
"ooooooo +OOOOOOOOOOOOOO++ oooooo",
"oooooooo +OOOO       O++ Xoooooo",
"ooooooooo +OO ooooo O++ oooooooo",
"ooooooo...   .......   ...oooooo",
"oooooooooooooooooooooooooooooooo"
};
