/* XPM */
static char *pink1_png[] = {
/* columns rows colors chars-per-pixel */
"32 32 11 1 ",
"  c #211640",
". c #557D55",
"X c #CF3C71",
"o c #688E50",
"O c #6A9150",
"+ c #E18289",
"@ c #F5B784",
"# c #FF82CE",
"$ c #FEC9ED",
"% c #F8F1F6",
"& c white",
/* pixels */
"OOOOOOOOOOOOOOOOOOOOOOOOOOOOOOOO",
"OOOOOOOOOOOOOOOOOOOOOOOOOOOOOOOO",
"OOOOOOOOOOOOOOOOOOOOOOOOOOOOOOOO",
"OOOOOOOOOOOOOOOOOOOOOOOOOOOOOOOO",
"OOOOOOOOOOOOOOOOOOOOOOOOOOOOOOOO",
"OOOOOOOOOOOOOOOOOOOOOOOOOOOOOOOO",
"OOOOOOOOOOOOOOOOOOOOOOOOOOOOOOOO",
"OOOOOOO   OOOOOOOOOOO    OOOOOOO",
"OOOOOO ###           ###$ OOOOOO",
"OOOOOO ## %$$$$$$#######$ OOOOOO",
"OOOOOO # %$$$$$$$$### #$ OOOOOOO",
"OOOOOOO $$ $$$$$$$ ##$  OOOOOOOO",
"OOOOOOO $$ $XXX$$$ ###$ OOOOOOOO",
"OOOOOO $$$$X X X$$####$$ OOOOOOO",
"OOOOOO $$ $XXXXX$# ####$ OOOOOOO",
"OOOOOO $ +        + ###$ OOOOOOO",
"OOOOOO $ @ ++++++ + ###$ OOOOOOO",
"OOOOOO $ @ @@@@@@ + ###$ OOOOOOO",
"OOOOOO $ @ @   @@ + ###$ OOOOOOO",
"OOOOOO $ XX@@@@@@XX ###$ OOOOOOO",
"OOOOO  $$          #####$ OOOOOO",
"OOOOO  $$%%%%%%%%$$## ##$ OOOOOO",
"OOOO $ $$% & &   $$## ###$ OOOOO",
"OOOO $ $$% & &&& $$### ##$ OOOOO",
"OOOO $ $$%   &   $$### ##$ OOOOO",
"OOOOO  $$%&& & &&$$####   OOOOOO",
"OOOOOO $$$%& &   $#####$ OOOOOOO",
"OOOOOO $$##############$  OOOOOO",
"OOOOOOo $$#       ####$ ## OOOOO",
"OOOOOOOO $$# OOOOO ##$    OOOOOO",
"OOOOOO...   .......   ...OOOOOOO",
"OOOOOOOOOOOOOOOOOOOOOOOOOOOOOOOO"
};
