/* XPM */
static char *result[] = {
/* columns rows colors chars-per-pixel */
"32 32 7 1 ",
"  c #211640",
". c #557D55",
"X c #888E50",
"o c #8A9050",
"O c #8B9150",
"+ c #E2C9FF",
"@ c white",
/* pixels */
"OOOOOOOOOO   OOOOOOOO   OOOOOOOO",
"OOOOOOOOO @@@ OOOOOO @@@ OOOOOOO",
"OOOOOOOOO @@+ OOOOOO @@+ OOOOOOO",
"OOOOOOOOO @@+ OOOOOO @@+ OOOOOOO",
"OOOOOOOOO @@+ OOOOOO @@+ OOOOOOO",
"OOOOOOOO @@+ OOOOOO @@+ OOOOOOOO",
"OOOOOOOO @@+ OOOOOO @@+ OOOOOOOO",
"OOOOOOOO @@+ OOOOOO @@+ OOOOOOOO",
"OOOOOOOO @@+            OOOOOOOO",
"OOOOOOOO @+++@@@@@@@@@@ OOOOOOOO",
"OOOOOOOO @+++@@@@@@@@@@@ OOOOOOO",
"OOOOOOOO @+++@@@@@@@@@@@ OOOOOOO",
"OOOOOOO @++++@@@@@@@@@@@@ OOOOOO",
"OOOOOOO @+++++@@@@@@@@@@@ OOOOOO",
"OOOOOOO @+++++@@@@@@@@@@@ OOOOOO",
"OOOOOOO @+++++@@@@@@@@@@@ OOOOOO",
"OOOOOOO @+++++@@@@@@@@@@@ OOOOOO",
"OOOOOOO @+++++@@@@@@@@@@@ OOOOOO",
"OOOOOOO @+++++@@@@@@@@@@@ OOOOOO",
"OOOOOOO @+++++@@@@@@@@@@@ OOOOOO",
"OOOOOO @++++++@@@@@@@@@@@  OOOOO",
"OOOOOO @++ +++@@@@@   @@@  OOOOO",
"OOOOO @+++ ++@@@@@ @@@ @@ @ OOOO",
"OOOOO @++ +++@@@@@ @@+ @@ @ OOOO",
"OOOOO @++ +++@@@@@@   +@@ @ OOOO",
"OOOOOO   ++++@@@@@@+++@@@  OOOOO",
"OOOOOOO @+++++@@@@@@@@@@@ OOOOOO",
"OOOOOOO @++++++++++++++@@ OOOOOO",
"OOOOOOOO @++++       +@@ XOOOOOO",
"OOOOOOOOO @++ OOOOO +@@ oOOOOOOO",
"OOOOOOO...   .......   ...OOOOOO",
"OOOOOOOOOOOOOOOOOOOOOOOOOOOOOOOO"
};
