/* XPM */
static char *result[] = {
/* columns rows colors chars-per-pixel */
"32 32 110 2 ",
"   c black",
".  c #010100",
"X  c #010101",
"o  c #030301",
"O  c #030302",
"+  c #040402",
"@  c #040503",
"#  c #050503",
"$  c #050603",
"%  c #060603",
"&  c #070704",
"*  c #080905",
"=  c #0B0B05",
"-  c #0A0B06",
";  c #0B0B06",
":  c #0C0D07",
">  c #0D0D07",
",  c #0E0F08",
"<  c #0F1009",
"1  c #101009",
"2  c #111109",
"3  c #12130A",
"4  c #13140B",
"5  c #15160C",
"6  c #16170D",
"7  c #191A0E",
"8  c #1C1E11",
"9  c #212213",
"0  c #222414",
"q  c #252615",
"w  c #252715",
"e  c #262715",
"r  c #272816",
"t  c #282A17",
"y  c #292B18",
"u  c #2A2C18",
"i  c #2C2E19",
"p  c #2E2F1A",
"a  c #2F311B",
"s  c #31331C",
"d  c #33351D",
"f  c #34361E",
"g  c #34371E",
"h  c #35381F",
"j  c #36381F",
"k  c #37391F",
"l  c #373920",
"z  c #383A20",
"x  c #383B20",
"c  c #383B21",
"v  c #393B21",
"b  c #3B3D22",
"n  c #3E4023",
"m  c #3E4024",
"M  c #414425",
"N  c #424526",
"B  c #464828",
"V  c #464A28",
"C  c #484B2A",
"Z  c #494C2A",
"A  c #4A4D2B",
"S  c #4B4E2B",
"D  c #4C4F2C",
"F  c #4F522E",
"G  c #50532E",
"H  c #50542E",
"J  c #50552F",
"K  c #52562F",
"L  c #555831",
"P  c #555931",
"I  c #575A32",
"U  c #5B5F34",
"Y  c #5E6236",
"T  c #5F6337",
"R  c #606437",
"E  c #606537",
"W  c #626638",
"Q  c #686D3C",
"!  c #696E3D",
"~  c #6A6E3D",
"^  c #6A6F3D",
"/  c #6B6F3D",
"(  c #6B703E",
")  c #6D723F",
"_  c #6E733F",
"`  c #6F7440",
"'  c #707440",
"]  c #717641",
"[  c #747943",
"{  c #757A43",
"}  c #767B44",
"|  c #767C44",
" . c #777C44",
".. c #777C45",
"X. c #787D45",
"o. c #787E45",
"O. c #797E46",
"+. c #7B8147",
"@. c #7C8247",
"#. c #7D8248",
"$. c #7E8348",
"%. c #7F8449",
"&. c #81864A",
"*. c #858B4D",
"=. c #868B4D",
"-. c #868C4D",
";. c #878C4D",
":. c #878D4E",
">. c #888E4E",
",. c #8B9150",
/* pixels */
",.,.,.,.,.,.,.,.,.,.,.,.,.,.,.,.,.,.,.,.,.,.,.,.,.,.,.,.,.,.,.,.",
",.,.,.,.,.,.,.,.,.,.,.,.,.,.,.,.,.,.,.,.,.,.,.,.,.,.,.,.,.,.,.,.",
",.,.,.,.,.,.,.,.,.,.,.,.,.,.,.,.,.,.,.,.,.,.,.,.,.,.,.,.,.,.,.,.",
",.,.,.,.,.,.,.,.,.,.,.,.,.,.,.,.,.,.,.,.,.,.,.,.,.,.,.,.,.,.,.,.",
",.,.,.,.,.,.,.,.,.,.,.,.,.,.,.,.,.,.,.,.,.,.,.,.,.,.,.,.,.,.,.,.",
",.,.,.,.,.,.,.,.,.,.,.,.,.,.,.,.,.,.,.,.,.,.,.,.,.,.,.,.,.,.,.,.",
",.,.,.,.,.,.,.,.,.,.,.,.,.,.,.,.,.,.,.,.,.,.,.,.,.,.,.,.,.,.,.,.",
",.,.,.,.,.,.,.,.,.,.,.,.,.,.,.,.,.,.,.,.,.,.,.,.,.,.,.,.,.,.,.,.",
",.,.,.,.,.,.,.,.,.,.,.,.,.,.,.,.,.,.,.,.=.$.' ` ,.,.,.,.,.,.,.,.",
",.,.,.,.,.,.,.,.,.,.,.,.,.,.,.,.-.&._ E S c t 6 ,.,.,.,.,.,.,.,.",
",.,.,.,.,.,.,.,.,.,.,.,.,.! F z u H 4 * X     ; ,.,.,.,.,.,.,.,.",
",.,.,.,.,.,.,.,.,.,.,.,.' k     P [ - y Z :   * ,.,.,.,.,.,.,.,.",
",.,.,.,.,.,.,.,.,.,.,.@.N %   a ,.{ e o.Z 1   h ,.,.,.,.,.,.,.,.",
",.,.,.,.,.,.,.,.,.,.=.C ,   2 ,.,.,.,.B i   p ,.,.,.,.,.,.,.,.,.",
",.,.,.,.,.,.,.,.,.,.J 7   o -.,.,.,.L x   q ~ ] ,.,.,.,.,.,.,.,.",
",.,.,.,.,.,.,.,.,.Y r   * ..,.&.$.o.g @ & I n r ,.,.,.,.,.,.,.,.",
",.,.,.,.,.,.,.*.^ f   . 8 D M g 9 m >   O k w x ,.,.,.,.,.,.,.,.",
",.,.,.,.,.,.,.G d +   O 4 5       j 3   # 0 t R ,.,.,.,.,.,.,.,.",
",.,.,.,.,.,.,.l %                 T A H { >.,.,.,.,.,.,.,.,.,.,.",
",.,.,.,.,.,.,.S +     < b V =     ) ,.,.,.,.,.,.,.,.,.,.,.,.,.,.",
",.,.,.,.,.,.,.:.W K / O.#.W $     Z | Q ! X.;.,.,.,.,.,.,.,.,.,.",
",.,.,.,.,.,.,.=.%.O.{ ) Q ( v s U .. .} +.#.-.,.,.,.,.,.,.,.,.,.",
",.,.,.,.,.,.,.,.,.,.,.,.,.,.,.,.,.,.,.,.,.,.,.,.,.,.,.,.,.,.,.,.",
",.,.,.,.,.,.,.,.,.,.,.,.,.,.,.,.,.,.,.,.,.,.,.,.,.,.,.,.,.,.,.,.",
",.,.,.,.,.,.,.,.,.,.,.,.,.,.,.,.,.,.,.,.,.,.,.,.,.,.,.,.,.,.,.,.",
",.,.,.,.,.,.,.,.,.,.,.,.,.,.,.,.,.,.,.,.,.,.,.,.,.,.,.,.,.,.,.,.",
",.,.,.,.,.,.,.,.,.,.,.,.,.,.,.,.,.,.,.,.,.,.,.,.,.,.,.,.,.,.,.,.",
",.,.,.,.,.,.,.,.,.,.,.,.,.,.,.,.,.,.,.,.,.,.,.,.,.,.,.,.,.,.,.,.",
",.,.,.,.,.,.,.,.,.,.,.,.,.,.,.,.,.,.,.,.,.,.,.,.,.,.,.,.,.,.,.,.",
",.,.,.,.,.,.,.,.,.,.,.,.,.,.,.,.,.,.,.,.,.,.,.,.,.,.,.,.,.,.,.,.",
",.,.,.,.,.,.,.,.,.,.,.,.,.,.,.,.,.,.,.,.,.,.,.,.,.,.,.,.,.,.,.,.",
",.,.,.,.,.,.,.,.,.,.,.,.,.,.,.,.,.,.,.,.,.,.,.,.,.,.,.,.,.,.,.,."
};
