/* XPM */
static char *result[] = {
/* columns rows colors chars-per-pixel */
"32 32 110 2 ",
"   c black",
".  c #010100",
"X  c #020201",
"o  c #050603",
"O  c #070704",
"+  c #080804",
"@  c #090A05",
"#  c #0A0A06",
"$  c #0A0B06",
"%  c #0B0C07",
"&  c #0D0D07",
"*  c #0E0E08",
"=  c #0E0F08",
"-  c #0F1009",
";  c #11120A",
":  c #13130B",
">  c #15160C",
",  c #16170C",
"<  c #16170D",
"1  c #17180D",
"2  c #1C1D10",
"3  c #1D1E11",
"4  c #212213",
"5  c #232514",
"6  c #252715",
"7  c #262716",
"8  c #272816",
"9  c #282A17",
"0  c #292B18",
"q  c #2B2C18",
"w  c #2B2D19",
"e  c #2D2F1A",
"r  c #2F311B",
"t  c #30321C",
"y  c #32331D",
"u  c #32341D",
"i  c #33351D",
"p  c #383B20",
"a  c #393C21",
"s  c #3A3C21",
"d  c #3B3E22",
"f  c #3C3E22",
"g  c #3C3F23",
"h  c #3D3F23",
"j  c #3D4023",
"k  c #3E4023",
"l  c #3E4124",
"z  c #404225",
"x  c #404325",
"c  c #464928",
"v  c #494C2A",
"b  c #4E512D",
"n  c #50532E",
"m  c #52552F",
"M  c #555931",
"N  c #565931",
"B  c #575B32",
"V  c #585C33",
"C  c #595C33",
"Z  c #5A5E34",
"A  c #5F6336",
"S  c #606537",
"D  c #616538",
"F  c #646839",
"G  c #64683A",
"H  c #65693A",
"J  c #656A3A",
"K  c #666B3B",
"L  c #676C3C",
"P  c #686C3C",
"I  c #696E3C",
"U  c #6B6F3E",
"Y  c #6B703E",
"T  c #6C713E",
"R  c #6D713F",
"E  c #6D723F",
"W  c #6E733F",
"Q  c #6F7440",
"!  c #6F7540",
"~  c #707440",
"^  c #717541",
"/  c #717641",
"(  c #727742",
")  c #747943",
"_  c #757A43",
"`  c #767B44",
"'  c #777B44",
"]  c #767C44",
"[  c #777C44",
"{  c #777C45",
"}  c #797E46",
"|  c #7A7F46",
" . c #7C8147",
".. c #7D8348",
"X. c #7E8348",
"o. c #7F8449",
"O. c #81864A",
"+. c #82884B",
"@. c #858A4C",
"#. c #858B4D",
"$. c #868B4D",
"%. c #868C4D",
"&. c #878D4E",
"*. c #888E4E",
"=. c #898E4F",
"-. c #898F4F",
";. c #8A8F4F",
":. c #8A904F",
">. c #8A9050",
",. c #6a9150",
/* pixels */
",.,.,.,.,.,.,.,.,.,.,.,.,.,.,.,.,.,.,.,.,.,.,.,.,.,.,.,.,.,.,.,.",
",.,.,.,.,.,.,.,.,.,.,.,.,.,.,.,.,.,.,.,.,.,.,.,.,.,.,.,.,.,.,.,.",
",.,.,.,.,.,.,.,.,.,.,.,.,.,.,.,.,.,.,.,.,.,.,.,.,.,.,.,.,.,.,.,.",
",.,.,.,.,.,.,.,.,.,.,.,.,.,.,.,.,.,.,.,.,.,.,.,.,.,.,.,.,.,.,.,.",
",.,.,.,.,.,.,.,.,.,.,.,.,.,.,.,.,.,.,.,.,.,.,.,.,.,.,.,.,.,.,.,.",
",.,.,.,.,.,.,.,.,.,.,.,.,.,.,.,.,.,.,.,.,.,.,.,.,.,.,.,.,.,.,.,.",
",.,.,.,.,.,.,.,.,.,.,.,.,.,.,.,.,.,.,.,.,.,.,.,.,.,.,.,.,.,.,.,.",
",.,.,.,.,.,.,.,.,.,.,.,.,.,.,.,.,.,.,.,.,.,.,.,.,.,.,.,.,.,.,.,.",
",.,.,.,.,.,.,.,.,.,.,.,.,.,.,.,.,.,.,.*.$.+.[ Q O.,.,.,.,.,.,.,.",
",.,.,.,.,.,.,.,.,.,.,.,.,.,.,.*.#.>._ ! L S n z F ,.,.,.,.,.,.,.",
",.,.,.,.,.,.,.,.,.,.,.,.,.Z f r e X.: * o $     8 ,.,.,.,.,.,.,.",
",.,.,.,.,.,.,.,.,.,.,.,.K 2     Z *.+   J ,     h ,.,.,.,.,.,.,.",
",.,.,.,.,.,.,.,.,.,.,.G 5     m ,.o.= ..{ 1     v ,.,.,.,.,.,.,.",
",.,.,.,.,.,.,.,.,.,.Y 7     k ,.,.,.,./ d &   x *.,.,.,.,.,.,.,.",
",.,.,.,.,.,.,.,.,.^ q     t ,.,.,.,.#.a %   i ,.,.,.,.,.,.,.,.,.",
",.,.,.,.,.,.,.,.| u   . 4 ,.*... .:.h ;   g *.z T ,.,.,.,.,.,.,.",
",.,.,.,.,.,.,.R s .   @ y p p r 6 ( <     l v 1 V ,.,.,.,.,.,.,.",
",.,.,.,.,.,.,.b O     + -         A =     9 3   { ,.,.,.,.,.,.,.",
",.,.,.,.,.,.,.C             X     [ d 0 c N D Q &.,.,.,.,.,.,.,.",
",.,.,.,.,.,.,.T # > w b H P O     @.,.,.,.,.,.,.,.,.,.,.,.,.,.,.",
",.,.,.,.,.,.,.,.%.&.-.&.+.P .     M ' ) W ! =.,.,.,.,.,.,.,.,.,.",
",.,.,.,.,.,.,.;.{ / / E I U l j B ~ ` } ] _ %.,.,.,.,.,.,.,.,.,.",
",.,.,.,.,.,.,.,.,.,.,.,.,.,.,.,.,.,.,.,.,.,.,.,.,.,.,.,.,.,.,.,.",
",.,.,.,.,.,.,.,.,.,.,.,.,.,.,.,.,.,.,.,.,.,.,.,.,.,.,.,.,.,.,.,.",
",.,.,.,.,.,.,.,.,.,.,.,.,.,.,.,.,.,.,.,.,.,.,.,.,.,.,.,.,.,.,.,.",
",.,.,.,.,.,.,.,.,.,.,.,.,.,.,.,.,.,.,.,.,.,.,.,.,.,.,.,.,.,.,.,.",
",.,.,.,.,.,.,.,.,.,.,.,.,.,.,.,.,.,.,.,.,.,.,.,.,.,.,.,.,.,.,.,.",
",.,.,.,.,.,.,.,.,.,.,.,.,.,.,.,.,.,.,.,.,.,.,.,.,.,.,.,.,.,.,.,.",
",.,.,.,.,.,.,.,.,.,.,.,.,.,.,.,.,.,.,.,.,.,.,.,.,.,.,.,.,.,.,.,.",
",.,.,.,.,.,.,.,.,.,.,.,.,.,.,.,.,.,.,.,.,.,.,.,.,.,.,.,.,.,.,.,.",
",.,.,.,.,.,.,.,.,.,.,.,.,.,.,.,.,.,.,.,.,.,.,.,.,.,.,.,.,.,.,.,.",
",.,.,.,.,.,.,.,.,.,.,.,.,.,.,.,.,.,.,.,.,.,.,.,.,.,.,.,.,.,.,.,."
};
