/* XPM */
static char *result[] = {
/* columns rows colors chars-per-pixel */
"32 32 103 2 ",
"   c black",
".  c #010100",
"X  c #010101",
"o  c #030302",
"O  c #040402",
"+  c #050503",
"@  c #050603",
"#  c #060603",
"$  c #080804",
"%  c #090A05",
"&  c #0D0D07",
"*  c #0D0E08",
"=  c #0E0E08",
"-  c #0E0F08",
";  c #0F0F08",
":  c #0F1009",
">  c #101009",
",  c #101109",
"<  c #11120A",
"1  c #13130B",
"2  c #16170D",
"3  c #17180D",
"4  c #18190E",
"5  c #191A0F",
"6  c #1D1E11",
"7  c #1D1F11",
"8  c #1F2012",
"9  c #1F2112",
"0  c #202112",
"q  c #202113",
"w  c #222414",
"e  c #262716",
"r  c #272917",
"t  c #292B18",
"y  c #2A2C18",
"u  c #2B2C18",
"i  c #2C2D19",
"p  c #2F311B",
"a  c #31331C",
"s  c #33351D",
"d  c #34361E",
"f  c #35371E",
"g  c #35381E",
"h  c #36381F",
"j  c #373A20",
"k  c #383B20",
"l  c #383B21",
"z  c #3A3D22",
"x  c #3C3F22",
"c  c #3D4023",
"v  c #3D4124",
"b  c #414425",
"n  c #424426",
"m  c #434526",
"M  c #444727",
"N  c #464A28",
"B  c #474A29",
"V  c #484C2A",
"C  c #494C2A",
"Z  c #4A4D2A",
"A  c #4C4F2B",
"S  c #4B4F2C",
"D  c #4C502C",
"F  c #4E512D",
"G  c #545830",
"H  c #555931",
"J  c #565A32",
"K  c #585C33",
"L  c #595D33",
"P  c #5A5E34",
"I  c #5E6236",
"U  c #5F6336",
"Y  c #616538",
"T  c #626638",
"R  c #636839",
"E  c #64693A",
"W  c #65693A",
"Q  c #666A3B",
"!  c #666B3B",
"~  c #686D3C",
"^  c #696D3C",
"/  c #6C713E",
"(  c #6F7440",
")  c #707541",
"_  c #747943",
"`  c #757A43",
"'  c #767B44",
"]  c #767C44",
"[  c #787D45",
"{  c #787E45",
"}  c #7A7F46",
"|  c #7B8047",
" . c #7D8248",
".. c #7E8449",
"X. c #81874A",
"o. c #858A4C",
"O. c #858B4C",
"+. c #858B4D",
"@. c #868C4D",
"#. c #878D4E",
"$. c #898F4F",
"%. c #8A9050",
"&. c #8B9150",
/* pixels */
"&.&.&.&.&.&.&.&.&.&.&.&.&.&.&.&.&.&.&.&.&.&.&.&.&.&.&.&.&.&.&.&.",
"&.&.&.&.&.&.&.&.&.&.&.&.&.&.&.&.&.&.&.&.&.&.&.&.&.&.&.&.&.&.&.&.",
"&.&.&.&.&.&.&.&.&.&.&.&.&.&.&.&.&.&.&.&.&.&.&.&.&.&.&.&.&.&.&.&.",
"&.&.&.&.&.&.&.&.&.&.&.&.&.&.&.&.&.&.&.&.&.&.&.&.&.&.&.&.&.&.&.&.",
"&.&.&.&.&.&.&.&.&.&.&.&.&.&.&.&.&.&.&.&.&.&.&.&.&.&.&.&.&.&.&.&.",
"&.&.&.&.&.&.&.&.&.&.&.&.&.&.&.&.&.&.&.&.&.&.&.&.&.&.&.&.&.&.&.&.",
"&.&.&.&.&.&.&.&.&.&.&.&.&.&.&.&.&.&.&.&.&.&.&.&.&.&.&.&.&.&.&.&.",
"&.&.&.&.&.&.&.&.&.&.&.&.&.&.&.&.&.&.&.&.&.&.&.&.&.&.&.&.&.&.&.&.",
"&.&.&.&.&.&.&.&.&.&.&.&.&.&.&.&.&.&.&.&...( ~ } &.&.&.&.&.&.&.&.",
"&.&.&.&.&.&.&.&.&.&.&.&.&.&.&.#.@.` G x i 4 + g &.&.&.&.&.&.&.&.",
"&.&.&.&.&.&.&.&.&.&.&.&.&._ H j p y ;   # +   f &.&.&.&.&.&.&.&.",
"&.&.&.&.&.&.&.&.&.&.&.&.X.Z 3   B C & e 4 @   l &.&.&.&.&.&.&.&.",
"&.&.&.&.&.&.&.&.&.&.&.&.K u   < &.Y h B s   y ` &.&.&.&.&.&.&.&.",
"&.&.&.&.&.&.&.&.&.&.&.T c     / &.&.Q b , % O.&.&.&.&.&.&.&.&.&.",
"&.&.&.&.&.&.&.&.&.&.] V :   D &.&.+.z r @ p P ' &.&.&.&.&.&.&.&.",
"&.&.&.&.&.&.&.&.&.o.F 7   t &. .X.R t   & n 8 F &.&.&.&.&.&.&.&.",
"&.&.&.&.&.&.&.&.&.P a     v S k 6 5 =   3 d $ J &.&.&.&.&.&.&.&.",
"&.&.&.&.&.&.&.&.W M O   & 0 >   . q 1   w A } %.&.&.&.&.&.&.&.&.",
"&.&.&.&.&.&.&.&.M 2               G ! { &.&.&.&.&.&.&.&.&.&.&.&.",
"&.&.&.&.&.&.&.&.m #     o 9 - o   I &.&.&.&.&.&.&.&.&.&.&.&.&.&.",
"&.&.&.&.&.&.&.&.E X 4 N ( U * @   C ' R ) o.&.&.&.&.&.&.&.&.&.&.",
"&.&.&.&.&.&.&.&.$.L ^ ] _ E d 4 L [ ` | | @.&.&.&.&.&.&.&.&.&.&.",
"&.&.&.&.&.&.&.&.&.&.&.&.&.&.&.&.&.&.&.&.&.&.&.&.&.&.&.&.&.&.&.&.",
"&.&.&.&.&.&.&.&.&.&.&.&.&.&.&.&.&.&.&.&.&.&.&.&.&.&.&.&.&.&.&.&.",
"&.&.&.&.&.&.&.&.&.&.&.&.&.&.&.&.&.&.&.&.&.&.&.&.&.&.&.&.&.&.&.&.",
"&.&.&.&.&.&.&.&.&.&.&.&.&.&.&.&.&.&.&.&.&.&.&.&.&.&.&.&.&.&.&.&.",
"&.&.&.&.&.&.&.&.&.&.&.&.&.&.&.&.&.&.&.&.&.&.&.&.&.&.&.&.&.&.&.&.",
"&.&.&.&.&.&.&.&.&.&.&.&.&.&.&.&.&.&.&.&.&.&.&.&.&.&.&.&.&.&.&.&.",
"&.&.&.&.&.&.&.&.&.&.&.&.&.&.&.&.&.&.&.&.&.&.&.&.&.&.&.&.&.&.&.&.",
"&.&.&.&.&.&.&.&.&.&.&.&.&.&.&.&.&.&.&.&.&.&.&.&.&.&.&.&.&.&.&.&.",
"&.&.&.&.&.&.&.&.&.&.&.&.&.&.&.&.&.&.&.&.&.&.&.&.&.&.&.&.&.&.&.&.",
"&.&.&.&.&.&.&.&.&.&.&.&.&.&.&.&.&.&.&.&.&.&.&.&.&.&.&.&.&.&.&.&."
};
