/* XPM */
static char *result[] = {
/* columns rows colors chars-per-pixel */
"32 32 104 2 ",
"   c black",
".  c #020201",
"X  c #030302",
"o  c #050503",
"O  c #050603",
"+  c #060703",
"@  c #070704",
"#  c #090A05",
"$  c #0A0B06",
"%  c #0B0B06",
"&  c #0C0D07",
"*  c #0D0D07",
"=  c #0F0F08",
"-  c #101209",
";  c #11120A",
":  c #13140B",
">  c #17180D",
",  c #17180E",
"<  c #18190E",
"1  c #1A1B0F",
"2  c #1B1C0F",
"3  c #1B1D10",
"4  c #1C1D10",
"5  c #1D1F11",
"6  c #1F2012",
"7  c #202213",
"8  c #222414",
"9  c #252615",
"0  c #262716",
"q  c #262816",
"w  c #272917",
"e  c #282A17",
"r  c #292B18",
"t  c #2A2C18",
"y  c #2C2E19",
"u  c #2E301B",
"i  c #30321C",
"p  c #31331C",
"a  c #34361E",
"s  c #35371E",
"d  c #37391F",
"f  c #383B20",
"g  c #393C21",
"h  c #3E4023",
"j  c #404325",
"k  c #414325",
"l  c #414425",
"z  c #434627",
"x  c #444727",
"c  c #454828",
"v  c #464928",
"b  c #474A29",
"n  c #484B2A",
"m  c #484C2A",
"M  c #494C2A",
"N  c #4B4E2B",
"B  c #4D502C",
"V  c #4D512D",
"C  c #4E512D",
"Z  c #50532D",
"A  c #52562F",
"S  c #525630",
"D  c #545830",
"F  c #545831",
"G  c #565A31",
"H  c #565A32",
"J  c #585C32",
"K  c #585C33",
"L  c #595D33",
"P  c #5C6035",
"I  c #5D6136",
"U  c #5E6236",
"Y  c #606437",
"T  c #616638",
"R  c #64683A",
"E  c #666B3B",
"W  c #686C3C",
"Q  c #696D3C",
"!  c #6A6E3D",
"~  c #6A6F3D",
"^  c #6B6F3D",
"/  c #6C713E",
"(  c #6C713F",
")  c #6E733F",
"_  c #747943",
"`  c #757A43",
"'  c #787D45",
"]  c #797E46",
"[  c #797F46",
"{  c #7C8147",
"}  c #7E8348",
"|  c #7E8449",
" . c #80864A",
".. c #81864A",
"X. c #82884B",
"o. c #83884B",
"O. c #83894C",
"+. c #84894C",
"@. c #858B4D",
"#. c #868B4D",
"$. c #868C4D",
"%. c #878D4E",
"&. c #888E4E",
"*. c #6a9150",
/* pixels */
"*.*.*.*.*.*.*.*.*.*.*.*.*.*.*.*.*.*.*.*.*.*.*.*.*.*.*.*.*.*.*.*.",
"*.*.*.*.*.*.*.*.*.*.*.*.*.*.*.*.*.*.*.*.*.*.*.*.*.*.*.*.*.*.*.*.",
"*.*.*.*.*.*.*.*.*.*.*.*.*.*.*.*.*.*.*.*.*.*.*.*.*.*.*.*.*.*.*.*.",
"*.*.*.*.*.*.*.*.*.*.*.*.*.*.*.*.*.*.*.*.*.*.*.*.*.*.*.*.*.*.*.*.",
"*.*.*.*.*.*.*.*.*.*.*.*.*.*.*.*.*.*.*.*.*.*.*.*.*.*.*.*.*.*.*.*.",
"*.*.*.*.*.*.*.*.*.*.*.*.*.*.*.*.*.*.*.*.*.*.*.*.*.*.*.*.*.*.*.*.",
"*.*.*.*.*.*.*.*.*.*.*.*.*.*.*.*.*.*.*.*.*.*.*.*.*.*.*.*.*.*.*.*.",
"*.*.*.*.*.*.*.*.*.*.*.*.*.*.*.*.*.*.*.*.*.*.*.*.*.*.*.*.*.*.*.*.",
"*.*.*.*.*.*.*.*.*.*.*.*.*.*.*.*.*.*.*.| T z R *.*.*.*.*.*.*.*.*.",
"*.*.*.*.*.*.*.*.*.*.*.*.*.*.*.#.$.J v 0 :   s *.*.*.*.*.*.*.*.*.",
"*.*.*.*.*.*.*.*.*.*.*.*.*.o.I v t < $   *   s *.*.*.*.*.*.*.*.*.",
"*.*.*.*.*.*.*.*.*.*.*.*.*.F d   w p @ - 1   M *.*.*.*.*.*.*.*.*.",
"*.*.*.*.*.*.*.*.*.*.*.*.Q N %   ..^ 3 g = 0 *.*.*.*.*.*.*.*.*.*.",
"*.*.*.*.*.*.*.*.*.*.*.@.B e   b *.*.s f   ) *.*.*.*.*.*.*.*.*.*.",
"*.*.*.*.*.*.*.*.*.*.*.L l   * *.*.U j O   c G *.*.*.*.*.*.*.*.*.",
"*.*.*.*.*.*.*.*.*.*.' C <   ) O. .V 8   i u A *.*.*.*.*.*.*.*.*.",
"*.*.*.*.*.*.*.*.*.*.Z a   * n z 6 > &   r = W *.*.*.*.*.*.*.*.*.",
"*.*.*.*.*.*.*.*.+.E m @   4 7 .   5 ; < ! *.*.*.*.*.*.*.*.*.*.*.",
"*.*.*.*.*.*.*.*.H h 9   . X       C { *.*.*.*.*.*.*.*.*.*.*.*.*.",
"*.*.*.*.*.*.*.*.v 2 O     o * o   P *.*.*.*.*.*.*.*.*.*.*.*.*.*.",
"*.*.*.*.*.*.*.*.c , o   y D < #   k ^ Y | *.*.*.*.*.*.*.*.*.*.*.",
"*.*.*.*.*.*.*.*.] K q N ( / a + S }  .X.%.*.*.*.*.*.*.*.*.*.*.*.",
"*.*.*.*.*.*.*.*.&.[ P ` _ [ ~ x $.*.*.*.*.*.*.*.*.*.*.*.*.*.*.*.",
"*.*.*.*.*.*.*.*.*.*.*.*.*.*.*.*.*.*.*.*.*.*.*.*.*.*.*.*.*.*.*.*.",
"*.*.*.*.*.*.*.*.*.*.*.*.*.*.*.*.*.*.*.*.*.*.*.*.*.*.*.*.*.*.*.*.",
"*.*.*.*.*.*.*.*.*.*.*.*.*.*.*.*.*.*.*.*.*.*.*.*.*.*.*.*.*.*.*.*.",
"*.*.*.*.*.*.*.*.*.*.*.*.*.*.*.*.*.*.*.*.*.*.*.*.*.*.*.*.*.*.*.*.",
"*.*.*.*.*.*.*.*.*.*.*.*.*.*.*.*.*.*.*.*.*.*.*.*.*.*.*.*.*.*.*.*.",
"*.*.*.*.*.*.*.*.*.*.*.*.*.*.*.*.*.*.*.*.*.*.*.*.*.*.*.*.*.*.*.*.",
"*.*.*.*.*.*.*.*.*.*.*.*.*.*.*.*.*.*.*.*.*.*.*.*.*.*.*.*.*.*.*.*.",
"*.*.*.*.*.*.*.*.*.*.*.*.*.*.*.*.*.*.*.*.*.*.*.*.*.*.*.*.*.*.*.*.",
"*.*.*.*.*.*.*.*.*.*.*.*.*.*.*.*.*.*.*.*.*.*.*.*.*.*.*.*.*.*.*.*."
};
