/* XPM */
static char *result[] = {
/* columns rows colors chars-per-pixel */
"32 32 85 1 ",
"  c black",
". c #020201",
"X c #040402",
"o c #040503",
"O c #050503",
"+ c #060604",
"@ c #070704",
"# c #080804",
"$ c #0A0B05",
"% c #0A0B06",
"& c #0C0D07",
"* c #0D0D07",
"= c #0D0E08",
"- c #0E0F08",
"; c #0F1009",
": c #101009",
"> c #101109",
", c #11120A",
"< c #13130B",
"1 c #13140B",
"2 c #16170D",
"3 c #18190E",
"4 c #191A0F",
"5 c #1A1B0F",
"6 c #1B1C0F",
"7 c #1D1E11",
"8 c #202112",
"9 c #212213",
"0 c #222414",
"q c #232414",
"w c #242615",
"e c #262816",
"r c #282A17",
"t c #292B18",
"y c #2B2C18",
"u c #2B2C19",
"i c #2B2D19",
"p c #30321C",
"a c #32341D",
"s c #34371E",
"d c #35371E",
"f c #383B20",
"g c #3C3F22",
"h c #3D3F23",
"j c #3F4224",
"k c #414425",
"l c #464928",
"z c #474A29",
"x c #484B2A",
"c c #4E512D",
"v c #4E522D",
"b c #4F522D",
"n c #51542E",
"m c #51552F",
"M c #525730",
"N c #565A32",
"B c #595D33",
"V c #5A5E34",
"C c #5C6035",
"Z c #626638",
"A c #65693A",
"S c #666A3B",
"D c #696E3C",
"F c #6C713E",
"G c #6D723F",
"H c #6E733F",
"J c #707541",
"K c #717641",
"L c #777D45",
"P c #797F46",
"I c #7A7F46",
"U c #7A8046",
"Y c #7C8147",
"T c #7C8248",
"R c #7D8248",
"E c #7E8348",
"W c #7F8549",
"Q c #80854A",
"! c #858A4C",
"~ c #878D4E",
"^ c #888D4E",
"/ c #898F4F",
"( c #8A904F",
") c #8A9050",
"_ c #8B9150",
/* pixels */
"________________________________",
"________________________________",
"________________________________",
"________________________________",
"________________________________",
"________________________________",
"________________________________",
"________________________________",
"________________________________",
"______________HFY_______________",
"_____________G qsG(_____________",
"_____________1  +lBR____________",
"___________/z #u8 ymZ!__________",
"___________V%.@_t$ 6fn__________",
"___________N@,7U_L =ic__________",
"___________D4 rbJK <dB__________",
"____________~9 w2o >eZ__________",
"______________5:5 X-A___________",
"______________j,2 *g____________",
"______________j*&@3kEU__________",
"___________^WPh.O%,1aA__________",
"____________(QTCvM@;pS__________",
"_________________)P0xI__________",
"________________________________",
"________________________________",
"________________________________",
"________________________________",
"________________________________",
"________________________________",
"________________________________",
"________________________________",
"________________________________"
};
