/* XPM */
static char *result[] = {
/* columns rows colors chars-per-pixel */
"32 32 11 1 ",
"  c #211640",
". c #557D55",
"X c #CF3C71",
"o c #688E50",
"O c #6A9150",
"+ c #E18289",
"@ c #F5B784",
"# c #FF82CE",
"$ c #E2C9FF",
"% c #F6F2FA",
"& c white",
/* pixels */
"OOOOOOOOO   OOOOOOOO   OOOOOOOOO",
"OOOOOOOO &&& OOOOOO &&& OOOOOOOO",
"OOOOOOOO &#$ OOOOOO &#$ OOOOOOOO",
"OOOOOOOO &#$ OOOOOO &#$ OOOOOOOO",
"OOOOOOOO &#$ OOOOOO &#$ OOOOOOOO",
"OOOOOOOO &#$ OOOOOO &#$ OOOOOOOO",
"OOOOOOOO &#$ OOOOOO &#$ OOOOOOOO",
"OOOOOOOO &#$           OOOOOOOOO",
"OOOOOOO &$&&&&&&&&&&&&  OOOOOOOO",
"OOOOOOO &$& &&&&&&& &&& OOOOOOOO",
"OOOOOOO &$& &&   && &&& OOOOOOOO",
"OOOOOO &$$&&&&& &&&&&&&& OOOOOOO",
"OOOOOO &$$&    +    &&&& OOOOOOO",
"OOOOOO &$$ ++++@++++ &&& OOOOOOO",
"OOOOOO &$$ +@@@@@@@+ &&& OOOOOOO",
"OOOOOO &$$ + @@@@@ + &&& OOOOOOO",
"OOOOOO &$$ + @@@@@ + &&& OOOOOOO",
"OOOOOO &$$ + @   @ + &&& OOOOOOO",
"OOOOOO &$$ XX@@@@@XX &&& OOOOOOO",
"OOOOO &$$$$         $$&&& OOOOOO",
"OOOOO &&$  $&&&&&&&%  $&& OOOOOO",
"OOOO &&&$$%& & &   &%$$&&& OOOOO",
"OOOO &&$$ %& & &&& &% $$&& OOOOO",
"OOO &&&$ $%&   &   &%& $&&& OOOO",
"OOO &&$$ $%&&& & &&&%& $$&& OOOO",
"OOO $$$ $$$%&& &   &%&& $$$ OOOO",
"OOOO    &$$$%%%%%%%%$$$$   OOOOO",
"OOOOOOOO &$$$$$$$$$$$$$ oOOOOOOO",
"OOOOOOOOO              OOOOOOOOO",
"OOOOOOOOO $$$$OOOO$$$$ OOOOOOOOO",
"OOOOOO....    ....    ....OOOOOO",
"OOOOOOOOOOOOOOOOOOOOOOOOOOOOOOOO"
};
