/* XPM */
static char *_087f353859e4dbbb695ec04c45d5d6crOTqM0Rp3EqoldUJ[] = {
/* columns rows colors chars-per-pixel */
"32 32 16 1 ",
"  c #353540",
". c #373944",
"X c #8A9050",
"o c #8B9150",
"O c #B69E51",
"+ c #B79F51",
"@ c #B8A051",
"# c #BAA151",
"$ c #BBA151",
"% c #BBA251",
"& c #BCA251",
"* c #BDA351",
"= c #596597",
"- c #5A679B",
"; c #5B689D",
": c #5C699F",
/* pixels */
"::::::::::::::::::::::::::::::::",
"::::::::::::::::::::::::::::::::",
"::::::::::::::::::::::::::::::::",
"::::::::::::::::::::::::::::::::",
"::::::::::::::::::::::::::::::::",
"::::::::::::::::::::::::::::::::",
"::::::::::::::::::::::::::::::::",
"::::::::::::::::::::::::::::::::",
";;;;::::::::=------;::::::::::::",
"      ::::            ::::      ",
"      ::::            ;:::      ",
"****....    ********        ****",
"****....    *$$$$$$*        @O**",
"oo************oooo*$*@$*@$$*$@oo",
"oo************oooo************oo",
"oooooooooooooooooooooooooooooooo",
"oooooooooooooooooooooooooooooooo",
"oooooooooooooooooooooooooooooooo",
"oooooooooooooooooooooooooooooooo",
"oooooooooooooooooooooooooooooooo",
"oooooooooooooooooooooooooooooooo",
"oooooooooooooooooooooooooooooooo",
"oooooooooooooooooooooooooooooooo",
"oooooooooooooooooooooooooooooooo",
"oooooooooooooooooooooooooooooooo",
"oooooooooooooooooooooooooooooooo",
"oooooooooooooooooooooooooooooooo",
"oooooooooooooooooooooooooooooooo",
"oooooooooooooooooooooooooooooooo",
"oooooooooooooooooooooooooooooooo",
"oooooooooooooooooooooooooooooooo",
"oooooooooooooooooooooooooooooooo"
};
