/* XPM */
static char *result[] = {
/* columns rows colors chars-per-pixel */
"32 32 8 1 ",
"  c #211640",
". c #00604B",
"X c #557D55",
"o c #20B562",
"O c #888E50",
"+ c #8A9050",
"@ c #8B9150",
"# c #63D6A8",
/* pixels */
"@@@@@@@@@@@@@@@@@@@@@@@@@@@@@@@@",
"@@@@@@@@@@@@@@@@@@@@@@@@@@@@@@@@",
"@@@@@@@@@@@@@@@@@@@@@@@@@@@@@@@@",
"@@@@@@@@@@@@@@@@@@@@@@@@@@@@@@@@",
"@@@@@@@@@@@@@@@@@@@@@@@@@@@@@@@@",
"@@@@@@@@@@@@@@@@@@@@@@@@@@@@@@@@",
"@@@@@@@@@    @@@@@@@    @@@@@@@@",
"@@@@@@@@ .o## @@@@@ .o## @@@@@@@",
"@@@@@@@@ .oo# @@@@@ .oo# @@@@@@@",
"@@@@@@@@ .ooo         oo @@@@@@@",
"@@@@@@@@ .o  ..oooooo# o @@@@@@@",
"@@@@@@@@@  ...oooooooo# @@@@@@@@",
"@@@@@@@@ o....oooooooooo @@@@@@@",
"@@@@@@@@ o....oooooooooo @@@@@@@",
"@@@@@@@ o....oooooooooooo @@@@@@",
"@@@@@@@ o...ooooooooooooo @@@@@@",
"@@@@@@@ o...ooooooooooooo @@@@@@",
"@@@@@@@ o...ooooooooooooo @@@@@@",
"@@@@@@@ o...ooooooooooooo @@@@@@",
"@@@@@@@ o...ooooooooooooo @@@@@@",
"@@@@@@ o.....oooooooooooo  @@@@@",
"@@@@@@ o.. ..oooooooooooo  @@@@@",
"@@@@@ o... ..oooooooooooo o @@@@",
"@@@@@ o.. ...oooooooooooo o @@@@",
"@@@@@ o.. ...oooooooooooo o @@@@",
"@@@@@@   ....oooooooooooo  @@@@@",
"@@@@@@@ o.....ooooooooooo @@@@@@",
"@@@@@@@ o..............oo @@@@@@",
"@@@@@@@@ o....       .oo O@@@@@@",
"@@@@@@@@@ o.. @@@@@ .oo +@@@@@@@",
"@@@@@@@XXX   XXXXXXX   XXX@@@@@@",
"@@@@@@@@@@@@@@@@@@@@@@@@@@@@@@@@"
};
