/* XPM */
static char *result[] = {
/* columns rows colors chars-per-pixel */
"32 32 11 1 ",
"  c #211640",
". c #557D55",
"X c #CF3C71",
"o c #688E50",
"O c #699050",
"+ c #6A9150",
"@ c #E18289",
"# c #F5B784",
"$ c #FF82CE",
"% c #E2C9FF",
"& c white",
/* pixels */
"++++++++++++++++++++++++++++++++",
"++++++++++   ++++++++   ++++++++",
"+++++++++ &&& ++++++ &&& +++++++",
"+++++++++ &$% ++++++ &$% +++++++",
"+++++++++ &$% ++++++ &$% +++++++",
"+++++++++ &$% ++++++ &$% +++++++",
"+++++++++ &$% ++++++ &$% +++++++",
"+++++++++ &$% ++++++ &$% +++++++",
"+++++++++ &$%           ++++++++",
"++++++++ &%%%%%&&&&&&&& ++++++++",
"++++++++ &%%% &&&&&&& && +++++++",
"++++++++ &%%% &&&   & &&&+++++++",
"+++++++ &%%%%%&&&& &&&&&& ++++++",
"+++++++ &%%%%     @    && ++++++",
"+++++++ &%%% @@@@@#@@@@ & ++++++",
"+++++++ &%%% @######### & ++++++",
"+++++++ &%%% @ ###### # & ++++++",
"+++++++ &%%% @ ###### # & ++++++",
"+++++++ &%%% @ ##   # # & ++++++",
"+++++++ &%%% XX######XX & ++++++",
"++++++ &%%%%%          &&  +++++",
"++++++ &%% %%%&&&&&&&&&&&  +++++",
"+++++ &%%% %%&& & &   &&& & ++++",
"+++++ &%% %%%&& & &&& &&& & ++++",
"+++++ &%% %%%&&   &   &&& & ++++",
"++++++   &%%%&&&& & &&&&&  +++++",
"++++++++ &%%%%&&& &   &&& ++++++",
"+++++++++ &%%%% %%%%%%%& +++++++",
"++++++++++ &%%%%     %& o+++++++",
"+++++++++++ &%%% + %%& O++++++++",
"+++++++.....    ...   ....++++++",
"++++++++++++++++++++++++++++++++"
};
