/* XPM */
static char *result[] = {
/* columns rows colors chars-per-pixel */
"32 32 92 1 ",
"  c black",
". c #010100",
"X c #010101",
"o c #030302",
"O c #040402",
"+ c #050503",
"@ c #050603",
"# c #070704",
"$ c #080804",
"% c #080905",
"& c #0B0C07",
"* c #0C0D07",
"= c #11120A",
"- c #13140B",
"; c #14150C",
": c #15160C",
"> c #16170D",
", c #17180D",
"< c #18190E",
"1 c #19190E",
"2 c #191A0E",
"3 c #1B1C0F",
"4 c #1F2011",
"5 c #1F2012",
"6 c #202112",
"7 c #202213",
"8 c #212313",
"9 c #252715",
"0 c #262816",
"q c #292B18",
"w c #2B2D19",
"e c #2C2D19",
"r c #2D2F1A",
"t c #2E2F1A",
"y c #2F311B",
"u c #32341D",
"i c #33351D",
"p c #34361E",
"a c #34371E",
"s c #36381F",
"d c #373920",
"f c #383A20",
"g c #383B21",
"h c #3A3D22",
"j c #3B3E22",
"k c #3C3E22",
"l c #3D4023",
"z c #404325",
"x c #434627",
"c c #454828",
"v c #464928",
"b c #464A28",
"n c #484B29",
"m c #494C2A",
"M c #4C4F2B",
"N c #4E512D",
"B c #4F522D",
"V c #50532E",
"C c #50542E",
"Z c #51542F",
"A c #52562F",
"S c #525630",
"D c #535630",
"F c #535730",
"G c #545830",
"H c #575B32",
"J c #585C33",
"K c #5A5E34",
"L c #5B5F34",
"P c #5F6437",
"I c #606437",
"U c #626638",
"Y c #686C3C",
"T c #696D3C",
"R c #6E723F",
"E c #6E733F",
"W c #737842",
"Q c #747943",
"! c #777C44",
"~ c #787E45",
"^ c #7A7F46",
"/ c #7B8147",
"( c #7C8147",
") c #7D8348",
"_ c #808549",
"` c #80864A",
"' c #83884B",
"] c #83894C",
"[ c #878C4E",
"{ c #898F4F",
"} c #8A9050",
"| c #8B9150",
/* pixels */
"||||||||||||||||||||||||||||||||",
"||||||||||||||||||||||||||||||||",
"||||||||||||||||||||||||||||||||",
"||||||||||||||||||||||||||||||||",
"||||||||||||||||||||||||||||||||",
"||||||||||||||||||||||||||||||||",
"||||||||||||||||||||||||||||||||",
"||||||||||||||||||(R^|||||||||||",
"|||||||||||||||||)Juj|||||||||||",
"||||||||||||||||Ux2 g|||||||||||",
"||||||||||||||QBw:%&c|||||||||||",
"|||||||||||||]Vu 77,J|||||||||||",
"|||||||||||||TG>lta4||||||||||||",
"|||||||||||||CmXW3r1_|||||||||||",
"||||||||||||/Aed!G$yC|||||||||||",
"||||||||||||ID=vLh 9H|||||||||||",
"|||||||||||}Mz.si*#k||||||||||||",
"|||||||||||EF6+q ;n|||||||||||||",
"||||||||||^KVO@o B||||||||||||||",
"||||||||||Zsy  @ S||||||||||||||",
"||||||||||b8, o< fQ|||||||||||||",
"||||||||||N0-5p&f{{|||||||||||||",
"||||||||||`Ym~[P'|||||||||||||||",
"||||||||||||||||||||||||||||||||",
"||||||||||||||||||||||||||||||||",
"||||||||||||||||||||||||||||||||",
"||||||||||||||||||||||||||||||||",
"||||||||||||||||||||||||||||||||",
"||||||||||||||||||||||||||||||||",
"||||||||||||||||||||||||||||||||",
"||||||||||||||||||||||||||||||||",
"||||||||||||||||||||||||||||||||"
};
