/* XPM */
static char *rabbit1_png[] = {
/* columns rows colors chars-per-pixel */
"32 32 10 1 ",
"  c #211640",
". c #557D55",
"X c #CF3C71",
"o c #688E50",
"O c #6A9150",
"+ c #E18289",
"@ c #F5B784",
"# c #FF82CE",
"$ c #E2C9FF",
"% c white",
/* pixels */
"OOOOOOOOO   OOOOOOOO   OOOOOOOOO",
"OOOOOOOO %#% OOOOOO %%% OOOOOOOO",
"OOOOOOOO $#% OOOOOO $#% OOOOOOOO",
"OOOOOOOO $#% OOOOOO $#% OOOOOOOO",
"OOOOOOOO $#% OOOOOO $#% OOOOOOOO",
"OOOOOOOOO $#% OOOOOO $#% OOOOOOO",
"OOOOOOOOO $#% OOOOOO $#% OOOOOOO",
"OOOOOOOOO $#% OOOOOO $#% OOOOOOO",
"OOOOOOOOO            $#% OOOOOOO",
"OOOOOOOOO %%%%%%%%%%$$$% OOOOOOO",
"OOOOOOOO %%%%%%%%%%%$$$% OOOOOOO",
"OOOOOOOO %% %%%%%%% $$$% OOOOOOO",
"OOOOOOO %%% %   %%% $$$$% OOOOOO",
"OOOOOOO %%%%%% %%%%$$$$$% OOOOOO",
"OOOOOOO %%    +     $$$$% OOOOOO",
"OOOOOOO % ++++@+++++ $$$% OOOOOO",
"OOOOOOO % @ @@@@@@ + $$$% OOOOOO",
"OOOOOOO % @ @@@@@@ + $$$% OOOOOO",
"OOOOOOO % @ @   @@ + $$$% OOOOOO",
"OOOOOOO % XX@@@@@@XX $$$% OOOOOO",
"OOOOOO  %%          $$$$$% OOOOO",
"OOOOOO  %%%%%%%%%%%$$$ $$% OOOOO",
"OOOOO % %% % %   %%%$$ $$$% OOOO",
"OOOOO % %% % %%% %%%$$$ $$% OOOO",
"OOOOO % %%   %   %%%$$$ $$% OOOO",
"OOOOOO  %%%% % %%%%%$$$$   OOOOO",
"OOOOOOO %%%% %   %%$$$$$% $ OOOO",
"OOOOOOO %%$$$$$$$$$$$$$$% $ OOOO",
"OOOOOOOo %%$       $$$$% $ OOOOO",
"OOOOOOOOO %%$ OOOOO $$%   OOOOOO",
"OOOOOOO...   .......   ...OOOOOO",
"OOOOOOOOOOOOOOOOOOOOOOOOOOOOOOOO"
};
