/* XPM */
static char *result[] = {
/* columns rows colors chars-per-pixel */
"32 32 13 1 ",
"  c #211640",
". c #00604B",
"X c #557D55",
"o c #CF3C71",
"O c #20B562",
"+ c #8A9050",
"@ c #8B9150",
"# c #63D6A8",
"$ c #E18289",
"% c #F5B784",
"& c #9BA0EF",
"* c #B1F0C6",
"= c white",
/* pixels */
"@@@@@@@@@@@@@@@@@@@@@@@@@@@@@@@@",
"@@@@@@@@@@@@@@@@@@@@@@@@@@@@@@@@",
"@@@@@@@@@@@@@@@@@@@@@@@@@@@@@@@@",
"@@@@@@@@@@@@@@@@@@@@@@@@@@@@@@@@",
"@@@@@@@@@@@@@@@@@@@@@@@@@@@@@@@@",
"@@@@@@@@@@    @@@@@    @@@@@@@@@",
"@@@@@@@@@ &=== @@@ &=== @@@@@@@@",
"@@@@@@@@@ &= = @@@ && = @@@@@@@@",
"@@@@@@@@@ &===        & @@@@@@@@",
"@@@@@@@@@ &=  ..OOOOO#  @@@@@@@@",
"@@@@@@@@@  ....OOOOOOO# @@@@@@@@",
"@@@@@@@@ O.....O OOOO OO @@@@@@@",
"@@@@@@@@ O.....OOOOOOOOO @@@@@@@",
"@@@@@@@ O..... .OOOOOOO O @@@@@@",
"@@@@@@@ O.... $         O @@@@@@",
"@@@@@@@ O.... $ $$$$$$  O @@@@@@",
"@@@@@@@ O.... $ %%%%%%  O @@@@@@",
"@@@@@@@ O.... $ %%   %  O @@@@@@",
"@@@@@@@ O.... oo%%%%%%o O @@@@@@",
"@@@@@@@ O.....          O @@@@@@",
"@@@@@@@ O.. ..**========O @@@@@@",
"@@@@@@@ O... .** = =   =O @@@@@@",
"@@@@@@@  O.. .** = === =O @@@@@@",
"@@@@@@@  O.. .**   =   =O @@@@@@",
"@@@@@@@ O   ..**== = ===O @@@@@@",
"@@@@@@@ O......**= =   OO @@@@@@",
"@@@@@@@ O..............O  @@@@@@",
"@@@@@@@@  ....         OO @@@@@@",
"@@@@@@@@ O.... @@@@@ ..OO @@@@@@",
"@@@@@@@@ O... @@@@@@ .OO +@@@@@@",
"@@@@@@@XX    XXXXXXXX   XX@@@@@@",
"@@@@@@@@@@@@@@@@@@@@@@@@@@@@@@@@"
};
